<?xml version="1.0" encoding="UTF-8" standalone="no"?>
<!-- Created with Inkscape (http://www.inkscape.org/) -->

<svg
   xmlns:dc="http://purl.org/dc/elements/1.1/"
   xmlns:cc="http://creativecommons.org/ns#"
   xmlns:rdf="http://www.w3.org/1999/02/22-rdf-syntax-ns#"
   xmlns:svg="http://www.w3.org/2000/svg"
   xmlns="http://www.w3.org/2000/svg"
   xmlns:sodipodi="http://sodipodi.sourceforge.net/DTD/sodipodi-0.dtd"
   xmlns:inkscape="http://www.inkscape.org/namespaces/inkscape"
   version="1.1"
   id="svg26352"
   xml:space="preserve"
   width="93.374565"
   height="91.069855"
   viewBox="0 0 93.374565 91.069855"
   sodipodi:docname="GitHub-Mark.svg"
   inkscape:version="0.92.3 (2405546, 2018-03-11)"><metadata
     id="metadata26358"><rdf:RDF><cc:Work
         rdf:about=""><dc:format>image/svg+xml</dc:format><dc:type
           rdf:resource="http://purl.org/dc/dcmitype/StillImage" /><dc:title></dc:title></cc:Work></rdf:RDF></metadata><defs
     id="defs26356" /><sodipodi:namedview
     pagecolor="#ffffff"
     bordercolor="#666666"
     borderopacity="1"
     objecttolerance="10"
     gridtolerance="10"
     guidetolerance="10"
     inkscape:pageopacity="0"
     inkscape:pageshadow="2"
     inkscape:window-width="2048"
     inkscape:window-height="1058"
     id="namedview26354"
     showgrid="false"
     inkscape:zoom="1.0012832"
     inkscape:cx="283.76065"
     inkscape:cy="-112.65361"
     inkscape:window-x="-11"
     inkscape:window-y="-11"
     inkscape:window-maximized="1"
     inkscape:current-layer="g26360" /><g
     id="g26360"
     inkscape:groupmode="layer"
     inkscape:label="ink_ext_XXXXXX"
     transform="matrix(1.3333333,0,0,-1.3333333,-130.82536,598.71897)"><path
       inkscape:connector-curvature="0"
       id="path26364"
       style="fill:#231f20;fill-opacity:1;fill-rule:nonzero;stroke:none;stroke-width:0.1"
       d="M 530.973,0 H 0 V 275.986 H 530.973 V 0" /><path
       inkscape:connector-curvature="0"
       id="path26366"
       style="fill:#1b1817;fill-opacity:1;fill-rule:evenodd;stroke:none;stroke-width:0.10000001"
       d="m 133.13127,449.03924 c -19.33326,0 -35.012247,-15.67683 -35.012247,-35.01654 0,-15.46833 10.032057,-28.59362 23.946247,-33.22595 1.7519,-0.32029 2.39032,0.76095 2.39032,1.68956 0,0.83189 -0.0301,3.03305 -0.0473,5.95432 -9.73971,-2.11518 -11.7947,4.69467 -11.7947,4.69467 -1.59284,4.04549 -3.88858,5.12243 -3.88858,5.12243 -3.17922,2.17107 0.24075,2.12808 0.24075,2.12808 3.51455,-0.2472 5.36319,-3.60914 5.36319,-3.60914 3.12332,-5.35028 8.19632,-3.80474 10.19112,-2.90837 0.31814,2.26135 1.22311,3.80475 2.22266,4.67962 -7.77501,0.88563 -15.94983,3.88858 -15.94983,17.30621 0,3.8241 1.36498,6.94743 3.60483,9.39579 -0.36113,0.88562 -1.56274,4.44532 0.34393,9.26681 0,0 2.93847,0.94151 9.62794,-3.58764 2.7923,0.776 5.7888,1.16292 8.76596,1.17797 2.97501,-0.0151 5.96936,-0.40197 8.76596,-1.17797 6.68517,4.52915 9.61934,3.58764 9.61934,3.58764 1.91097,-4.82149 0.70936,-8.38119 0.35038,-9.26681 2.24415,-2.44836 3.59838,-5.57169 3.59838,-9.39579 0,-13.45202 -8.18772,-16.41199 -15.98637,-17.27826 1.25535,-1.08124 2.37528,-3.21791 2.37528,-6.48527 0,-4.67962 -0.043,-8.45642 -0.043,-9.60429 0,-0.93721 0.63197,-2.02705 2.40752,-1.68526 13.90344,4.64092 23.9269,17.75547 23.9269,33.22165 0,19.33971 -15.67899,35.01654 -35.0187,35.01654" /><path
       inkscape:connector-curvature="0"
       id="path26368"
       style="fill:#1b1817;fill-opacity:1;fill-rule:evenodd;stroke:none;stroke-width:0.1"
       d="m 350.609,493.555 c -33.347,0 -60.388,-27.036 -60.388,-60.388 0,-26.681 17.303,-49.317 41.297,-57.302 3.018,-0.559 4.126,1.31 4.126,2.905 0,1.44 -0.056,6.197 -0.082,11.243 -16.8,-3.653 -20.345,7.125 -20.345,7.125 -2.747,6.98 -6.705,8.836 -6.705,8.836 -5.479,3.748 0.413,3.671 0.413,3.671 6.064,-0.425 9.257,-6.224 9.257,-6.224 5.386,-9.231 14.127,-6.562 17.573,-5.019 0.542,3.903 2.107,6.568 3.834,8.075 -13.413,1.527 -27.513,6.705 -27.513,29.844 0,6.593 2.359,11.98 6.222,16.209 -0.627,1.522 -2.694,7.663 0.585,15.981 0,0 5.071,1.623 16.611,-6.19 4.817,1.338 9.983,2.009 15.115,2.032 5.132,-0.023 10.302,-0.694 15.128,-2.032 11.526,7.813 16.59,6.19 16.59,6.19 3.287,-8.318 1.219,-14.459 0.592,-15.981 3.872,-4.229 6.215,-9.616 6.215,-16.209 0,-23.194 -14.127,-28.301 -27.574,-29.796 2.166,-1.874 4.096,-5.549 4.096,-11.183 0,-8.08 -0.07,-14.583 -0.07,-16.572 0,-1.607 1.087,-3.49 4.148,-2.897 23.981,7.994 41.262,30.622 41.262,57.294 0,33.352 -27.037,60.388 -60.387,60.388" /><path
       inkscape:connector-curvature="0"
       id="path26370"
       style="fill:#1b1817;fill-opacity:1;fill-rule:nonzero;stroke:none;stroke-width:0.1"
       d="m 313.093,406.851 c -0.133,-0.301 -0.605,-0.39 -1.035,-0.184 -0.438,0.197 -0.684,0.606 -0.542,0.907 0.13,0.308 0.603,0.394 1.04,0.189 0.439,-0.198 0.689,-0.611 0.537,-0.912 v 0" /><path
       inkscape:connector-curvature="0"
       id="path26372"
       style="fill:#1b1817;fill-opacity:1;fill-rule:nonzero;stroke:none;stroke-width:0.1"
       d="m 315.539,404.123 c -0.288,-0.267 -0.851,-0.143 -1.233,0.279 -0.395,0.421 -0.469,0.984 -0.177,1.255 0.297,0.266 0.843,0.141 1.239,-0.279 0.395,-0.426 0.472,-0.985 0.171,-1.255 v 0" /><path
       inkscape:connector-curvature="0"
       id="path26374"
       style="fill:#1b1817;fill-opacity:1;fill-rule:nonzero;stroke:none;stroke-width:0.1"
       d="m 317.92,400.645 c -0.37,-0.257 -0.975,-0.016 -1.349,0.521 -0.37,0.537 -0.37,1.181 0.008,1.439 0.375,0.258 0.971,0.025 1.35,-0.507 0.369,-0.546 0.369,-1.19 -0.009,-1.453 v 0" /><path
       inkscape:connector-curvature="0"
       id="path26376"
       style="fill:#1b1817;fill-opacity:1;fill-rule:nonzero;stroke:none;stroke-width:0.1"
       d="m 321.182,397.285 c -0.331,-0.365 -1.036,-0.267 -1.552,0.231 -0.528,0.487 -0.675,1.178 -0.343,1.543 0.335,0.366 1.044,0.263 1.564,-0.231 0.524,-0.486 0.684,-1.182 0.331,-1.543 v 0" /><path
       inkscape:connector-curvature="0"
       id="path26378"
       style="fill:#1b1817;fill-opacity:1;fill-rule:nonzero;stroke:none;stroke-width:0.1"
       d="m 325.682,395.334 c -0.146,-0.473 -0.825,-0.688 -1.509,-0.487 -0.683,0.207 -1.13,0.761 -0.992,1.239 0.142,0.476 0.824,0.7 1.513,0.485 0.682,-0.206 1.13,-0.756 0.988,-1.237 v 0" /><path
       inkscape:connector-curvature="0"
       id="path26380"
       style="fill:#1b1817;fill-opacity:1;fill-rule:nonzero;stroke:none;stroke-width:0.1"
       d="m 330.624,394.972 c 0.017,-0.498 -0.563,-0.911 -1.281,-0.92 -0.722,-0.016 -1.306,0.387 -1.314,0.877 0,0.503 0.567,0.912 1.289,0.924 0.718,0.014 1.306,-0.386 1.306,-0.881 v 0" /><path
       inkscape:connector-curvature="0"
       id="path26382"
       style="fill:#1b1817;fill-opacity:1;fill-rule:nonzero;stroke:none;stroke-width:0.1"
       d="m 335.223,395.755 c 0.086,-0.486 -0.413,-0.985 -1.126,-1.118 -0.701,-0.128 -1.35,0.172 -1.439,0.654 -0.087,0.498 0.421,0.997 1.121,1.126 0.714,0.124 1.353,-0.168 1.444,-0.662 v 0" /><path
       inkscape:connector-curvature="0"
       id="path26384"
       style="fill:none;stroke:#3a7fc3;stroke-width:1;stroke-linecap:round;stroke-linejoin:miter;stroke-miterlimit:10;stroke-dasharray:none;stroke-opacity:1"
       d="m 224.898,499.488 v -0.5" /><path
       inkscape:connector-curvature="0"
       id="path26386"
       style="fill:none;stroke:#3a7fc3;stroke-width:1;stroke-linecap:round;stroke-linejoin:miter;stroke-miterlimit:10;stroke-dasharray:0.99995, 1.9999;stroke-dashoffset:0;stroke-opacity:1"
       d="M 224.898,496.988 V 362.995" /><path
       inkscape:connector-curvature="0"
       id="path26388"
       style="fill:none;stroke:#3a7fc3;stroke-width:1;stroke-linecap:round;stroke-linejoin:miter;stroke-miterlimit:10;stroke-dasharray:none;stroke-opacity:1"
       d="m 224.898,361.995 v -0.5" /><path
       inkscape:connector-curvature="0"
       id="path26390"
       style="fill:#176fc1;fill-opacity:1;fill-rule:nonzero;stroke:none;stroke-width:0.1"
       d="m 133.276,347.479 c -0.381,0.277 -0.866,0.414 -1.458,0.414 -0.24,0 -0.476,-0.024 -0.708,-0.071 -0.233,-0.049 -0.438,-0.129 -0.618,-0.24 -0.18,-0.114 -0.324,-0.263 -0.433,-0.451 -0.107,-0.188 -0.161,-0.422 -0.161,-0.702 0,-0.263 0.077,-0.478 0.234,-0.642 0.155,-0.164 0.364,-0.298 0.624,-0.401 0.26,-0.105 0.553,-0.191 0.882,-0.259 0.328,-0.068 0.662,-0.142 1.002,-0.221 0.34,-0.08 0.673,-0.175 1.002,-0.283 0.328,-0.108 0.622,-0.254 0.882,-0.438 0.26,-0.183 0.468,-0.416 0.624,-0.695 0.156,-0.281 0.234,-0.633 0.234,-1.057 0,-0.456 -0.102,-0.845 -0.306,-1.17 -0.205,-0.324 -0.466,-0.588 -0.786,-0.792 -0.32,-0.204 -0.678,-0.352 -1.074,-0.444 -0.396,-0.092 -0.79,-0.138 -1.182,-0.138 -0.48,0 -0.934,0.06 -1.362,0.18 -0.428,0.12 -0.804,0.302 -1.128,0.546 -0.324,0.244 -0.58,0.557 -0.768,0.937 -0.188,0.379 -0.282,0.829 -0.282,1.349 h 1.08 c 0,-0.36 0.069,-0.67 0.21,-0.93 0.14,-0.26 0.324,-0.473 0.552,-0.641 0.228,-0.168 0.493,-0.293 0.798,-0.373 0.304,-0.08 0.615,-0.119 0.936,-0.119 0.256,0 0.514,0.023 0.774,0.072 0.26,0.047 0.494,0.129 0.702,0.246 0.208,0.115 0.376,0.273 0.504,0.473 0.128,0.201 0.192,0.457 0.192,0.768 0,0.296 -0.079,0.536 -0.234,0.72 -0.156,0.183 -0.365,0.334 -0.624,0.45 -0.261,0.116 -0.555,0.21 -0.882,0.282 -0.328,0.073 -0.662,0.147 -1.002,0.223 -0.34,0.075 -0.674,0.163 -1.002,0.264 -0.328,0.099 -0.623,0.231 -0.882,0.395 -0.26,0.164 -0.468,0.376 -0.624,0.636 -0.156,0.26 -0.234,0.586 -0.234,0.978 0,0.432 0.088,0.806 0.264,1.123 0.176,0.315 0.41,0.575 0.702,0.78 0.292,0.203 0.624,0.355 0.996,0.455 0.372,0.101 0.754,0.15 1.146,0.15 0.44,0 0.848,-0.053 1.224,-0.156 0.376,-0.104 0.706,-0.268 0.989,-0.492 0.285,-0.224 0.509,-0.506 0.673,-0.846 0.163,-0.34 0.254,-0.746 0.27,-1.218 h -1.08 c -0.065,0.617 -0.286,1.062 -0.666,1.338" /><path
       inkscape:connector-curvature="0"
       id="path26392"
       style="fill:#176fc1;fill-opacity:1;fill-rule:nonzero;stroke:none;stroke-width:0.1"
       d="m 137.554,346.285 v -0.912 h 0.024 c 0.463,0.705 1.131,1.056 2.003,1.056 0.385,0 0.732,-0.08 1.044,-0.24 0.313,-0.16 0.533,-0.431 0.661,-0.816 0.208,0.336 0.482,0.595 0.822,0.78 0.34,0.185 0.714,0.276 1.121,0.276 0.312,0 0.595,-0.034 0.847,-0.101 0.252,-0.069 0.467,-0.175 0.648,-0.319 0.18,-0.144 0.319,-0.33 0.419,-0.558 0.101,-0.228 0.15,-0.502 0.15,-0.822 v -4.547 h -1.019 v 4.067 c 0,0.193 -0.017,0.372 -0.049,0.54 -0.031,0.168 -0.091,0.315 -0.179,0.438 -0.089,0.125 -0.211,0.222 -0.366,0.295 -0.156,0.072 -0.358,0.107 -0.606,0.107 -0.504,0 -0.9,-0.143 -1.188,-0.432 -0.288,-0.288 -0.432,-0.672 -0.432,-1.152 v -3.863 h -1.021 v 4.067 c 0,0.2 -0.018,0.384 -0.053,0.552 -0.036,0.168 -0.098,0.314 -0.186,0.438 -0.089,0.124 -0.206,0.22 -0.354,0.288 -0.149,0.069 -0.339,0.102 -0.57,0.102 -0.296,0 -0.55,-0.059 -0.762,-0.18 -0.213,-0.12 -0.385,-0.263 -0.516,-0.431 -0.132,-0.168 -0.228,-0.342 -0.288,-0.523 -0.061,-0.18 -0.09,-0.33 -0.09,-0.45 v -3.863 h -1.02 v 6.203 h 0.96" /><path
       inkscape:connector-curvature="0"
       id="path26394"
       style="fill:#176fc1;fill-opacity:1;fill-rule:nonzero;stroke:none;stroke-width:0.1"
       d="m 150.165,343.076 c -0.208,-0.045 -0.425,-0.08 -0.653,-0.108 -0.228,-0.029 -0.459,-0.06 -0.691,-0.097 -0.232,-0.035 -0.44,-0.094 -0.623,-0.174 -0.185,-0.08 -0.335,-0.193 -0.451,-0.342 -0.116,-0.148 -0.173,-0.349 -0.173,-0.605 0,-0.168 0.033,-0.311 0.101,-0.426 0.068,-0.117 0.156,-0.211 0.264,-0.283 0.108,-0.071 0.236,-0.123 0.385,-0.155 0.148,-0.033 0.297,-0.048 0.449,-0.048 0.336,0 0.624,0.045 0.865,0.137 0.239,0.092 0.435,0.208 0.587,0.349 0.152,0.139 0.265,0.291 0.336,0.455 0.072,0.164 0.108,0.318 0.108,0.463 v 1.043 c -0.128,-0.096 -0.296,-0.166 -0.504,-0.209 z m 1.429,-3.127 c -0.265,0 -0.474,0.074 -0.631,0.223 -0.155,0.147 -0.234,0.389 -0.234,0.725 -0.28,-0.336 -0.606,-0.578 -0.978,-0.725 -0.372,-0.149 -0.774,-0.223 -1.206,-0.223 -0.279,0 -0.544,0.03 -0.792,0.09 -0.248,0.06 -0.466,0.16 -0.653,0.301 -0.188,0.139 -0.336,0.319 -0.444,0.539 -0.109,0.22 -0.162,0.486 -0.162,0.798 0,0.352 0.06,0.64 0.179,0.864 0.12,0.224 0.278,0.406 0.474,0.547 0.196,0.139 0.42,0.246 0.672,0.318 0.252,0.071 0.51,0.131 0.775,0.18 0.279,0.055 0.546,0.097 0.798,0.125 0.251,0.028 0.474,0.068 0.666,0.121 0.191,0.051 0.343,0.127 0.456,0.227 0.111,0.101 0.168,0.246 0.168,0.439 0,0.222 -0.042,0.403 -0.126,0.539 -0.084,0.137 -0.193,0.24 -0.325,0.312 -0.131,0.073 -0.28,0.121 -0.444,0.145 -0.164,0.023 -0.326,0.035 -0.485,0.035 -0.432,0 -0.792,-0.082 -1.08,-0.246 -0.289,-0.164 -0.445,-0.474 -0.469,-0.93 h -1.02 c 0.016,0.384 0.096,0.708 0.241,0.973 0.144,0.264 0.335,0.478 0.575,0.642 0.24,0.163 0.516,0.282 0.828,0.354 0.312,0.071 0.64,0.107 0.984,0.107 0.281,0 0.558,-0.019 0.834,-0.06 0.277,-0.039 0.527,-0.121 0.75,-0.246 0.224,-0.123 0.405,-0.298 0.54,-0.522 0.136,-0.224 0.204,-0.515 0.204,-0.876 v -3.192 c 0,-0.24 0.015,-0.416 0.042,-0.527 0.028,-0.113 0.123,-0.168 0.283,-0.168 0.088,0 0.191,0.019 0.312,0.059 v -0.792 c -0.177,-0.103 -0.42,-0.156 -0.732,-0.156" /><path
       inkscape:connector-curvature="0"
       id="path26396"
       style="fill:#176fc1;fill-opacity:1;fill-rule:nonzero;stroke:none;stroke-width:0.1"
       d="m 154.354,348.649 v -8.567 h -1.021 v 8.567 h 1.021" /><path
       inkscape:connector-curvature="0"
       id="path26398"
       style="fill:#176fc1;fill-opacity:1;fill-rule:nonzero;stroke:none;stroke-width:0.1"
       d="m 157.017,348.649 v -8.567 h -1.02 v 8.567 h 1.02" /><path
       inkscape:connector-curvature="0"
       id="path26400"
       style="fill:#176fc1;fill-opacity:1;fill-rule:nonzero;stroke:none;stroke-width:0.1"
       d="m 101.854,330.986 v 0.9 h 1.044 v 0.923 c 0,0.504 0.146,0.886 0.438,1.146 0.292,0.26 0.718,0.39 1.278,0.39 0.096,0 0.206,-0.007 0.33,-0.023 0.124,-0.017 0.234,-0.041 0.33,-0.072 v -0.889 c -0.088,0.032 -0.184,0.055 -0.288,0.066 -0.104,0.012 -0.2,0.018 -0.288,0.018 -0.248,0 -0.44,-0.048 -0.576,-0.143 -0.136,-0.097 -0.204,-0.281 -0.204,-0.552 v -0.864 h 1.2 v -0.9 h -1.2 v -5.305 h -1.02 v 5.305 h -1.044" /><path
       inkscape:connector-curvature="0"
       id="path26402"
       style="fill:#176fc1;fill-opacity:1;fill-rule:nonzero;stroke:none;stroke-width:0.1"
       d="m 106.924,327.775 c 0.099,-0.292 0.238,-0.535 0.414,-0.732 0.176,-0.196 0.382,-0.346 0.617,-0.45 0.236,-0.103 0.487,-0.156 0.75,-0.156 0.265,0 0.515,0.053 0.75,0.156 0.236,0.104 0.442,0.254 0.619,0.45 0.175,0.197 0.314,0.44 0.414,0.732 0.1,0.292 0.15,0.626 0.15,1.002 0,0.377 -0.05,0.71 -0.15,1.002 -0.1,0.293 -0.239,0.538 -0.414,0.738 -0.177,0.2 -0.383,0.352 -0.619,0.456 -0.235,0.105 -0.485,0.157 -0.75,0.157 -0.263,0 -0.514,-0.052 -0.75,-0.157 -0.235,-0.104 -0.441,-0.256 -0.617,-0.456 -0.176,-0.2 -0.315,-0.445 -0.414,-0.738 -0.1,-0.292 -0.15,-0.625 -0.15,-1.002 0,-0.376 0.05,-0.71 0.15,-1.002 z m -1.038,2.28 c 0.128,0.396 0.319,0.74 0.576,1.033 0.256,0.291 0.572,0.521 0.948,0.689 0.376,0.168 0.808,0.252 1.295,0.252 0.497,0 0.931,-0.084 1.303,-0.252 0.372,-0.168 0.685,-0.398 0.942,-0.689 0.255,-0.293 0.447,-0.637 0.576,-1.033 0.128,-0.395 0.192,-0.822 0.192,-1.278 0,-0.455 -0.064,-0.88 -0.192,-1.271 -0.129,-0.393 -0.321,-0.735 -0.576,-1.027 -0.257,-0.292 -0.57,-0.52 -0.942,-0.684 -0.372,-0.163 -0.806,-0.245 -1.303,-0.245 -0.487,0 -0.919,0.082 -1.295,0.245 -0.376,0.164 -0.692,0.392 -0.948,0.684 -0.257,0.292 -0.448,0.634 -0.576,1.027 -0.128,0.391 -0.192,0.816 -0.192,1.271 0,0.456 0.064,0.883 0.192,1.278" /><path
       inkscape:connector-curvature="0"
       id="path26404"
       style="fill:#176fc1;fill-opacity:1;fill-rule:nonzero;stroke:none;stroke-width:0.1"
       d="m 113.842,331.886 v -1.308 h 0.024 c 0.248,0.504 0.552,0.875 0.912,1.115 0.36,0.24 0.816,0.352 1.368,0.336 v -1.08 c -0.408,0 -0.756,-0.056 -1.044,-0.168 -0.288,-0.111 -0.521,-0.275 -0.696,-0.492 -0.176,-0.215 -0.305,-0.478 -0.384,-0.785 -0.08,-0.309 -0.12,-0.662 -0.12,-1.063 v -2.76 h -1.02 v 6.205 h 0.96" /><path
       inkscape:connector-curvature="0"
       id="path26406"
       style="fill:#176fc1;fill-opacity:1;fill-rule:nonzero;stroke:none;stroke-width:0.1"
       d="m 122.733,325.681 v 6.096 h -2.208 v 0.816 c 0.288,0 0.568,0.022 0.84,0.067 0.272,0.043 0.518,0.125 0.738,0.246 0.22,0.119 0.406,0.283 0.559,0.491 0.151,0.208 0.255,0.472 0.312,0.792 h 0.779 v -8.508 h -1.02" /><path
       inkscape:connector-curvature="0"
       id="path26408"
       style="fill:#176fc1;fill-opacity:1;fill-rule:nonzero;stroke:none;stroke-width:0.1"
       d="m 128.829,330.103 c -0.215,-0.099 -0.399,-0.236 -0.551,-0.408 -0.152,-0.172 -0.266,-0.376 -0.342,-0.611 -0.076,-0.237 -0.114,-0.487 -0.114,-0.75 0,-0.264 0.04,-0.512 0.12,-0.744 0.079,-0.233 0.194,-0.432 0.342,-0.6 0.148,-0.168 0.332,-0.303 0.552,-0.402 0.22,-0.101 0.47,-0.151 0.75,-0.151 0.28,0 0.526,0.05 0.738,0.151 0.212,0.099 0.39,0.238 0.534,0.414 0.144,0.175 0.254,0.378 0.33,0.605 0.076,0.229 0.114,0.467 0.114,0.715 0,0.264 -0.034,0.514 -0.102,0.75 -0.068,0.235 -0.174,0.439 -0.318,0.611 -0.144,0.172 -0.324,0.311 -0.54,0.414 -0.216,0.104 -0.468,0.157 -0.756,0.157 -0.288,0 -0.54,-0.051 -0.757,-0.151 z m 1.849,2.838 c -0.248,0.233 -0.576,0.348 -0.984,0.348 -0.432,0 -0.781,-0.106 -1.044,-0.318 -0.264,-0.212 -0.47,-0.479 -0.618,-0.803 -0.148,-0.325 -0.25,-0.674 -0.307,-1.051 -0.055,-0.375 -0.087,-0.728 -0.095,-1.056 l 0.024,-0.024 c 0.24,0.392 0.538,0.676 0.894,0.852 0.356,0.176 0.766,0.265 1.23,0.265 0.408,0 0.774,-0.07 1.098,-0.211 0.324,-0.139 0.596,-0.334 0.816,-0.582 0.22,-0.248 0.39,-0.539 0.51,-0.875 0.12,-0.337 0.18,-0.701 0.18,-1.093 0,-0.311 -0.048,-0.635 -0.144,-0.971 -0.096,-0.336 -0.254,-0.643 -0.474,-0.918 -0.221,-0.277 -0.512,-0.504 -0.876,-0.684 -0.364,-0.181 -0.814,-0.27 -1.351,-0.27 -0.631,0 -1.139,0.127 -1.523,0.383 -0.384,0.256 -0.68,0.584 -0.888,0.985 -0.209,0.399 -0.346,0.84 -0.414,1.32 -0.069,0.48 -0.102,0.943 -0.102,1.392 0,0.583 0.05,1.149 0.15,1.698 0.1,0.547 0.27,1.033 0.51,1.457 0.24,0.424 0.559,0.764 0.96,1.02 0.4,0.256 0.904,0.384 1.512,0.384 0.704,0 1.264,-0.185 1.68,-0.557 0.416,-0.373 0.656,-0.911 0.72,-1.615 h -1.021 c -0.047,0.385 -0.195,0.692 -0.443,0.924" /><path
       inkscape:connector-curvature="0"
       id="path26410"
       style="fill:#176fc1;fill-opacity:1;fill-rule:nonzero;stroke:none;stroke-width:0.1"
       d="m 138.316,329.683 c -0.076,0.276 -0.193,0.522 -0.348,0.739 -0.157,0.216 -0.356,0.387 -0.6,0.515 -0.245,0.128 -0.531,0.193 -0.858,0.193 -0.345,0 -0.637,-0.069 -0.876,-0.205 -0.241,-0.136 -0.436,-0.314 -0.588,-0.534 -0.153,-0.219 -0.262,-0.469 -0.33,-0.75 -0.069,-0.28 -0.102,-0.563 -0.102,-0.852 0,-0.304 0.036,-0.598 0.108,-0.881 0.071,-0.285 0.186,-0.535 0.341,-0.75 0.157,-0.217 0.358,-0.391 0.607,-0.522 0.247,-0.132 0.548,-0.199 0.9,-0.199 0.351,0 0.646,0.069 0.882,0.204 0.236,0.136 0.425,0.316 0.569,0.54 0.144,0.224 0.249,0.481 0.312,0.768 0.064,0.289 0.097,0.584 0.097,0.889 0,0.287 -0.038,0.57 -0.114,0.845 z m -3.666,2.203 v -0.841 h 0.024 c 0.168,0.344 0.431,0.594 0.792,0.75 0.36,0.156 0.756,0.234 1.188,0.234 0.48,0 0.898,-0.088 1.254,-0.264 0.356,-0.175 0.651,-0.414 0.888,-0.713 0.236,-0.3 0.413,-0.647 0.533,-1.039 0.121,-0.392 0.181,-0.808 0.181,-1.248 0,-0.439 -0.058,-0.855 -0.175,-1.248 -0.115,-0.392 -0.292,-0.734 -0.527,-1.025 -0.236,-0.293 -0.533,-0.522 -0.888,-0.69 -0.357,-0.168 -0.771,-0.252 -1.242,-0.252 -0.153,0 -0.323,0.016 -0.511,0.047 -0.188,0.033 -0.374,0.084 -0.557,0.157 -0.184,0.072 -0.359,0.17 -0.522,0.294 -0.164,0.124 -0.302,0.278 -0.414,0.461 h -0.024 v -3.191 h -1.02 v 8.568 h 1.02" /><path
       inkscape:connector-curvature="0"
       id="path26412"
       style="fill:#176fc1;fill-opacity:1;fill-rule:nonzero;stroke:none;stroke-width:0.1"
       d="m 140.217,331.886 h 1.308 l 1.488,-2.172 1.548,2.172 h 1.225 l -2.137,-2.857 2.4,-3.348 h -1.308 l -1.728,2.569 -1.727,-2.569 h -1.237 l 2.328,3.264 -2.16,2.941" /><path
       inkscape:connector-curvature="0"
       id="path26414"
       style="fill:#176fc1;fill-opacity:1;fill-rule:nonzero;stroke:none;stroke-width:0.1"
       d="m 150.225,329.498 v -0.961 h -3.468 v 0.961 h 3.468" /><path
       inkscape:connector-curvature="0"
       id="path26416"
       style="fill:#176fc1;fill-opacity:1;fill-rule:nonzero;stroke:none;stroke-width:0.1"
       d="m 154.077,325.681 v 6.096 h -2.208 v 0.816 c 0.288,0 0.568,0.022 0.84,0.067 0.272,0.043 0.518,0.125 0.738,0.246 0.22,0.119 0.406,0.283 0.558,0.491 0.152,0.208 0.256,0.472 0.312,0.792 h 0.78 v -8.508 h -1.02" /><path
       inkscape:connector-curvature="0"
       id="path26418"
       style="fill:#176fc1;fill-opacity:1;fill-rule:nonzero;stroke:none;stroke-width:0.1"
       d="m 158.157,332.377 c 0.112,0.369 0.286,0.686 0.522,0.955 0.236,0.267 0.53,0.477 0.882,0.629 0.352,0.152 0.752,0.228 1.2,0.228 0.368,0 0.714,-0.053 1.038,-0.162 0.324,-0.107 0.606,-0.264 0.846,-0.468 0.24,-0.204 0.43,-0.458 0.57,-0.761 0.14,-0.304 0.21,-0.657 0.21,-1.056 0,-0.377 -0.058,-0.709 -0.174,-0.996 -0.116,-0.289 -0.27,-0.547 -0.462,-0.775 -0.192,-0.227 -0.412,-0.434 -0.66,-0.618 -0.248,-0.183 -0.504,-0.359 -0.768,-0.527 -0.264,-0.16 -0.528,-0.318 -0.792,-0.475 -0.264,-0.156 -0.506,-0.322 -0.726,-0.498 -0.22,-0.176 -0.408,-0.365 -0.564,-0.57 -0.156,-0.203 -0.258,-0.438 -0.306,-0.701 h 4.368 v -0.901 h -5.556 c 0.04,0.504 0.13,0.934 0.27,1.29 0.14,0.357 0.318,0.667 0.534,0.931 0.216,0.264 0.46,0.495 0.732,0.695 0.272,0.2 0.556,0.388 0.852,0.565 0.36,0.224 0.676,0.43 0.948,0.617 0.272,0.188 0.498,0.379 0.678,0.57 0.18,0.192 0.316,0.401 0.408,0.624 0.092,0.224 0.138,0.484 0.138,0.781 0,0.231 -0.044,0.441 -0.132,0.63 -0.088,0.187 -0.206,0.349 -0.354,0.485 -0.148,0.137 -0.322,0.24 -0.522,0.312 -0.2,0.073 -0.412,0.108 -0.636,0.108 -0.296,0 -0.55,-0.062 -0.762,-0.186 -0.212,-0.124 -0.386,-0.286 -0.522,-0.486 -0.136,-0.199 -0.234,-0.426 -0.294,-0.678 -0.06,-0.252 -0.086,-0.506 -0.078,-0.762 h -1.02 c -0.024,0.432 0.02,0.832 0.132,1.2" /><path
       inkscape:connector-curvature="0"
       id="path26420"
       style="fill:#176fc1;fill-opacity:1;fill-rule:nonzero;stroke:none;stroke-width:0.1"
       d="m 165.783,328.795 c 0.02,-0.396 0.085,-0.768 0.192,-1.116 0.108,-0.347 0.282,-0.642 0.522,-0.881 0.24,-0.241 0.576,-0.361 1.008,-0.361 0.433,0 0.768,0.12 1.009,0.361 0.239,0.239 0.413,0.534 0.522,0.881 0.107,0.348 0.171,0.72 0.191,1.116 0.02,0.396 0.03,0.755 0.03,1.074 0,0.209 -0.002,0.438 -0.006,0.69 -0.004,0.252 -0.024,0.504 -0.06,0.756 -0.036,0.253 -0.087,0.498 -0.155,0.739 -0.069,0.239 -0.168,0.45 -0.301,0.629 -0.131,0.18 -0.297,0.326 -0.498,0.438 -0.2,0.112 -0.444,0.168 -0.732,0.168 -0.288,0 -0.532,-0.056 -0.732,-0.168 -0.2,-0.112 -0.366,-0.258 -0.498,-0.438 -0.132,-0.179 -0.232,-0.39 -0.3,-0.629 -0.068,-0.241 -0.12,-0.486 -0.156,-0.739 -0.036,-0.252 -0.056,-0.504 -0.06,-0.756 -0.004,-0.252 -0.006,-0.481 -0.006,-0.69 0,-0.319 0.01,-0.678 0.03,-1.074 z m -1.086,2.035 c 0.016,0.336 0.056,0.664 0.12,0.983 0.064,0.32 0.157,0.624 0.276,0.912 0.12,0.288 0.284,0.54 0.492,0.756 0.208,0.216 0.47,0.388 0.786,0.517 0.317,0.127 0.694,0.191 1.134,0.191 0.44,0 0.818,-0.064 1.135,-0.191 0.315,-0.129 0.577,-0.301 0.785,-0.517 0.208,-0.216 0.372,-0.468 0.492,-0.756 0.12,-0.288 0.212,-0.592 0.276,-0.912 0.064,-0.319 0.104,-0.647 0.12,-0.983 0.016,-0.336 0.024,-0.66 0.024,-0.973 0,-0.312 -0.008,-0.636 -0.024,-0.971 -0.016,-0.336 -0.056,-0.665 -0.12,-0.984 -0.064,-0.32 -0.156,-0.623 -0.276,-0.906 -0.12,-0.285 -0.284,-0.535 -0.492,-0.75 -0.208,-0.217 -0.468,-0.387 -0.78,-0.51 -0.312,-0.125 -0.691,-0.186 -1.14,-0.186 -0.44,0 -0.817,0.061 -1.134,0.186 -0.316,0.123 -0.578,0.293 -0.786,0.51 -0.208,0.215 -0.372,0.465 -0.492,0.75 -0.119,0.283 -0.212,0.586 -0.276,0.906 -0.064,0.319 -0.104,0.648 -0.12,0.984 -0.016,0.335 -0.024,0.659 -0.024,0.971 0,0.313 0.008,0.637 0.024,0.973" /><path
       inkscape:connector-curvature="0"
       id="path26422"
       style="fill:#176fc1;fill-opacity:1;fill-rule:nonzero;stroke:none;stroke-width:0.1"
       d="m 176.331,329.683 c -0.076,0.276 -0.192,0.522 -0.348,0.739 -0.156,0.216 -0.356,0.387 -0.6,0.515 -0.244,0.128 -0.53,0.193 -0.858,0.193 -0.344,0 -0.636,-0.069 -0.876,-0.205 -0.24,-0.136 -0.436,-0.314 -0.588,-0.534 -0.152,-0.219 -0.262,-0.469 -0.33,-0.75 -0.068,-0.28 -0.102,-0.563 -0.102,-0.852 0,-0.304 0.036,-0.598 0.108,-0.881 0.072,-0.285 0.186,-0.535 0.342,-0.75 0.156,-0.217 0.358,-0.391 0.607,-0.522 0.247,-0.132 0.547,-0.199 0.899,-0.199 0.352,0 0.646,0.069 0.882,0.204 0.236,0.136 0.426,0.316 0.57,0.54 0.144,0.224 0.248,0.481 0.312,0.768 0.064,0.289 0.096,0.584 0.096,0.889 0,0.287 -0.038,0.57 -0.114,0.845 z m -3.666,2.203 v -0.841 h 0.024 c 0.168,0.344 0.432,0.594 0.792,0.75 0.36,0.156 0.756,0.234 1.188,0.234 0.48,0 0.898,-0.088 1.254,-0.264 0.356,-0.175 0.652,-0.414 0.888,-0.713 0.236,-0.3 0.414,-0.647 0.534,-1.039 0.12,-0.392 0.18,-0.808 0.18,-1.248 0,-0.439 -0.058,-0.855 -0.174,-1.248 -0.116,-0.392 -0.292,-0.734 -0.528,-1.025 -0.236,-0.293 -0.532,-0.522 -0.887,-0.69 -0.357,-0.168 -0.771,-0.252 -1.243,-0.252 -0.152,0 -0.322,0.016 -0.51,0.047 -0.188,0.033 -0.374,0.084 -0.558,0.157 -0.184,0.072 -0.358,0.17 -0.521,0.294 -0.165,0.124 -0.303,0.278 -0.415,0.461 h -0.024 v -3.191 h -1.02 v 8.568 h 1.02" /><path
       inkscape:connector-curvature="0"
       id="path26424"
       style="fill:#176fc1;fill-opacity:1;fill-rule:nonzero;stroke:none;stroke-width:0.1"
       d="m 178.233,331.886 h 1.308 l 1.488,-2.172 1.548,2.172 h 1.224 l -2.136,-2.857 2.4,-3.348 h -1.308 l -1.728,2.569 -1.728,-2.569 h -1.236 l 2.328,3.264 -2.16,2.941" /><path
       inkscape:connector-curvature="0"
       id="path26426"
       style="fill:#176fc1;fill-opacity:1;fill-rule:nonzero;stroke:none;stroke-width:0.1"
       d="m 335.633,348.65 v -7.607 h 4.536 v -0.961 h -5.675 v 8.568 h 1.139" /><path
       inkscape:connector-curvature="0"
       id="path26428"
       style="fill:#176fc1;fill-opacity:1;fill-rule:nonzero;stroke:none;stroke-width:0.1"
       d="m 344.333,343.076 c -0.209,-0.044 -0.425,-0.08 -0.654,-0.108 -0.228,-0.028 -0.459,-0.06 -0.69,-0.095 -0.232,-0.037 -0.441,-0.095 -0.624,-0.174 -0.184,-0.08 -0.334,-0.195 -0.45,-0.343 -0.117,-0.147 -0.173,-0.35 -0.173,-0.606 0,-0.168 0.033,-0.31 0.101,-0.426 0.068,-0.115 0.156,-0.209 0.264,-0.281 0.107,-0.073 0.236,-0.125 0.385,-0.157 0.147,-0.032 0.296,-0.048 0.449,-0.048 0.336,0 0.624,0.046 0.864,0.138 0.239,0.092 0.436,0.208 0.588,0.348 0.151,0.141 0.265,0.293 0.336,0.457 0.071,0.163 0.108,0.317 0.108,0.461 v 1.045 c -0.129,-0.097 -0.297,-0.166 -0.504,-0.211 z m 1.428,-3.125 c -0.264,0 -0.474,0.073 -0.631,0.221 -0.155,0.148 -0.233,0.39 -0.233,0.726 -0.28,-0.336 -0.607,-0.578 -0.978,-0.726 -0.373,-0.148 -0.774,-0.221 -1.207,-0.221 -0.279,0 -0.543,0.029 -0.791,0.09 -0.248,0.059 -0.467,0.16 -0.654,0.299 -0.188,0.14 -0.336,0.32 -0.443,0.541 -0.11,0.219 -0.162,0.486 -0.162,0.798 0,0.351 0.059,0.639 0.179,0.864 0.119,0.223 0.278,0.405 0.474,0.545 0.196,0.14 0.42,0.246 0.672,0.318 0.252,0.072 0.51,0.133 0.774,0.18 0.279,0.056 0.546,0.098 0.798,0.127 0.252,0.027 0.474,0.067 0.666,0.119 0.192,0.052 0.344,0.129 0.456,0.228 0.111,0.1 0.168,0.246 0.168,0.438 0,0.224 -0.042,0.404 -0.126,0.541 -0.084,0.135 -0.192,0.239 -0.324,0.311 -0.132,0.072 -0.28,0.12 -0.445,0.144 -0.164,0.024 -0.326,0.037 -0.485,0.037 -0.432,0 -0.792,-0.083 -1.08,-0.246 -0.288,-0.164 -0.444,-0.475 -0.468,-0.931 h -1.02 c 0.016,0.384 0.096,0.708 0.24,0.972 0.144,0.264 0.336,0.478 0.575,0.642 0.24,0.165 0.517,0.282 0.828,0.354 0.313,0.072 0.641,0.108 0.985,0.108 0.28,0 0.558,-0.02 0.834,-0.059 0.276,-0.041 0.526,-0.123 0.75,-0.246 0.224,-0.125 0.404,-0.299 0.54,-0.523 0.135,-0.223 0.204,-0.516 0.204,-0.876 v -3.191 c 0,-0.24 0.014,-0.416 0.042,-0.529 0.028,-0.112 0.122,-0.168 0.282,-0.168 0.088,0 0.191,0.02 0.313,0.06 v -0.792 c -0.177,-0.104 -0.42,-0.155 -0.733,-0.155" /><path
       inkscape:connector-curvature="0"
       id="path26430"
       style="fill:#176fc1;fill-opacity:1;fill-rule:nonzero;stroke:none;stroke-width:0.1"
       d="m 348.365,346.287 v -1.309 h 0.023 c 0.248,0.504 0.553,0.876 0.912,1.117 0.361,0.239 0.817,0.351 1.369,0.335 v -1.08 c -0.408,0 -0.756,-0.055 -1.045,-0.168 -0.287,-0.112 -0.519,-0.276 -0.695,-0.492 -0.176,-0.216 -0.305,-0.477 -0.385,-0.786 -0.08,-0.308 -0.119,-0.662 -0.119,-1.062 v -2.76 h -1.02 v 6.205 h 0.96" /><path
       inkscape:connector-curvature="0"
       id="path26432"
       style="fill:#176fc1;fill-opacity:1;fill-rule:nonzero;stroke:none;stroke-width:0.1"
       d="m 354.454,341.121 c 0.237,0.138 0.426,0.323 0.571,0.551 0.144,0.228 0.25,0.486 0.318,0.774 0.068,0.288 0.102,0.576 0.102,0.864 0,0.272 -0.032,0.54 -0.096,0.805 -0.064,0.264 -0.166,0.502 -0.307,0.713 -0.139,0.213 -0.322,0.383 -0.545,0.51 -0.224,0.129 -0.496,0.193 -0.816,0.193 -0.328,0 -0.608,-0.063 -0.84,-0.186 -0.232,-0.125 -0.422,-0.291 -0.57,-0.499 -0.149,-0.208 -0.256,-0.448 -0.324,-0.719 -0.069,-0.273 -0.102,-0.557 -0.102,-0.853 0,-0.28 0.027,-0.559 0.084,-0.84 0.056,-0.28 0.152,-0.534 0.287,-0.762 0.137,-0.228 0.317,-0.413 0.541,-0.551 0.224,-0.141 0.504,-0.211 0.84,-0.211 0.336,0 0.621,0.07 0.857,0.211 z m 1.303,-2.791 c -0.465,-0.504 -1.192,-0.756 -2.183,-0.756 -0.289,0 -0.582,0.032 -0.883,0.096 -0.3,0.064 -0.572,0.168 -0.817,0.312 -0.244,0.145 -0.445,0.332 -0.605,0.565 -0.16,0.232 -0.248,0.515 -0.264,0.851 h 1.02 c 0.008,-0.183 0.066,-0.34 0.174,-0.468 0.108,-0.128 0.24,-0.231 0.396,-0.311 0.156,-0.08 0.326,-0.139 0.51,-0.175 0.183,-0.036 0.359,-0.054 0.527,-0.054 0.337,0 0.621,0.059 0.853,0.174 0.231,0.116 0.425,0.276 0.576,0.481 0.151,0.203 0.262,0.449 0.33,0.738 0.067,0.287 0.103,0.603 0.103,0.947 v 0.408 h -0.025 c -0.177,-0.384 -0.442,-0.666 -0.798,-0.845 -0.356,-0.181 -0.734,-0.271 -1.134,-0.271 -0.464,0 -0.868,0.084 -1.211,0.252 -0.345,0.168 -0.633,0.394 -0.866,0.679 -0.231,0.283 -0.406,0.615 -0.521,0.996 -0.116,0.379 -0.174,0.781 -0.174,1.205 0,0.368 0.048,0.746 0.145,1.135 0.095,0.386 0.255,0.739 0.479,1.056 0.224,0.315 0.521,0.575 0.888,0.78 0.368,0.203 0.82,0.305 1.355,0.305 0.393,0 0.752,-0.087 1.08,-0.258 0.328,-0.172 0.584,-0.43 0.769,-0.774 h 0.013 v 0.889 h 0.959 v -5.677 c 0,-1.015 -0.233,-1.776 -0.696,-2.28" /><path
       inkscape:connector-curvature="0"
       id="path26434"
       style="fill:#176fc1;fill-opacity:1;fill-rule:nonzero;stroke:none;stroke-width:0.1"
       d="m 362.134,344.463 c -0.092,0.216 -0.215,0.402 -0.371,0.557 -0.156,0.157 -0.341,0.28 -0.553,0.372 -0.212,0.092 -0.445,0.139 -0.701,0.139 -0.264,0 -0.503,-0.047 -0.715,-0.139 -0.212,-0.092 -0.394,-0.218 -0.546,-0.378 -0.151,-0.16 -0.272,-0.346 -0.36,-0.557 -0.088,-0.213 -0.14,-0.439 -0.155,-0.679 h 3.563 c -0.015,0.24 -0.07,0.468 -0.162,0.685 z m 0.246,-3.985 c -0.463,-0.351 -1.048,-0.527 -1.752,-0.527 -0.496,0 -0.925,0.08 -1.289,0.239 -0.365,0.16 -0.671,0.384 -0.918,0.672 -0.248,0.288 -0.434,0.632 -0.558,1.032 -0.124,0.401 -0.195,0.836 -0.21,1.309 0,0.471 0.071,0.903 0.216,1.295 0.144,0.392 0.345,0.732 0.605,1.02 0.26,0.288 0.568,0.512 0.925,0.672 0.355,0.16 0.745,0.24 1.17,0.24 0.552,0 1.01,-0.114 1.374,-0.342 0.363,-0.228 0.656,-0.518 0.876,-0.87 0.219,-0.352 0.372,-0.736 0.456,-1.152 0.084,-0.416 0.117,-0.812 0.101,-1.187 h -4.643 c -0.009,-0.273 0.024,-0.531 0.096,-0.775 0.072,-0.244 0.188,-0.46 0.348,-0.647 0.159,-0.189 0.363,-0.338 0.611,-0.451 0.249,-0.112 0.541,-0.168 0.876,-0.168 0.433,0 0.787,0.1 1.062,0.3 0.277,0.2 0.459,0.504 0.547,0.912 h 1.008 c -0.137,-0.696 -0.436,-1.22 -0.901,-1.572" /><path
       inkscape:connector-curvature="0"
       id="path26436"
       style="fill:#176fc1;fill-opacity:1;fill-rule:nonzero;stroke:none;stroke-width:0.1"
       d="m 365.357,346.287 v -1.309 h 0.023 c 0.248,0.504 0.553,0.876 0.912,1.117 0.36,0.239 0.817,0.351 1.369,0.335 v -1.08 c -0.409,0 -0.756,-0.055 -1.044,-0.168 -0.288,-0.112 -0.521,-0.276 -0.697,-0.492 -0.175,-0.216 -0.303,-0.477 -0.383,-0.786 -0.081,-0.308 -0.12,-0.662 -0.12,-1.062 v -2.76 h -1.021 v 6.205 h 0.961" /><path
       inkscape:connector-curvature="0"
       id="path26438"
       style="fill:#176fc1;fill-opacity:1;fill-rule:nonzero;stroke:none;stroke-width:0.1"
       d="m 318.257,330.986 v 0.9 h 1.044 v 0.924 c 0,0.504 0.146,0.887 0.439,1.147 0.291,0.26 0.716,0.389 1.277,0.389 0.096,0 0.206,-0.008 0.33,-0.024 0.124,-0.016 0.234,-0.039 0.33,-0.072 v -0.887 c -0.088,0.031 -0.183,0.053 -0.288,0.066 -0.104,0.011 -0.2,0.018 -0.288,0.018 -0.248,0 -0.439,-0.049 -0.576,-0.145 -0.136,-0.095 -0.203,-0.28 -0.203,-0.552 v -0.864 h 1.199 v -0.9 h -1.199 v -5.304 h -1.021 v 5.304 h -1.044" /><path
       inkscape:connector-curvature="0"
       id="path26440"
       style="fill:#176fc1;fill-opacity:1;fill-rule:nonzero;stroke:none;stroke-width:0.1"
       d="m 323.328,327.777 c 0.099,-0.293 0.237,-0.537 0.414,-0.732 0.175,-0.197 0.38,-0.346 0.617,-0.45 0.236,-0.105 0.486,-0.157 0.75,-0.157 0.263,0 0.513,0.052 0.75,0.157 0.236,0.104 0.441,0.253 0.618,0.45 0.176,0.195 0.313,0.439 0.414,0.732 0.101,0.291 0.149,0.625 0.149,1.002 0,0.375 -0.048,0.709 -0.149,1.002 -0.101,0.291 -0.238,0.537 -0.414,0.737 -0.177,0.2 -0.382,0.353 -0.618,0.456 -0.237,0.104 -0.487,0.157 -0.75,0.157 -0.264,0 -0.514,-0.053 -0.75,-0.157 -0.237,-0.103 -0.442,-0.256 -0.617,-0.456 -0.177,-0.2 -0.315,-0.446 -0.414,-0.737 -0.101,-0.293 -0.151,-0.627 -0.151,-1.002 0,-0.377 0.05,-0.711 0.151,-1.002 z m -1.04,2.279 c 0.129,0.397 0.321,0.741 0.577,1.032 0.256,0.293 0.572,0.523 0.948,0.691 0.376,0.168 0.808,0.252 1.296,0.252 0.496,0 0.929,-0.084 1.303,-0.252 0.371,-0.168 0.685,-0.398 0.941,-0.691 0.256,-0.291 0.447,-0.635 0.576,-1.032 0.128,-0.396 0.192,-0.822 0.192,-1.277 0,-0.457 -0.064,-0.881 -0.192,-1.272 -0.129,-0.392 -0.32,-0.735 -0.576,-1.027 -0.256,-0.292 -0.57,-0.519 -0.941,-0.683 -0.374,-0.164 -0.807,-0.247 -1.303,-0.247 -0.488,0 -0.92,0.083 -1.296,0.247 -0.376,0.164 -0.692,0.391 -0.948,0.683 -0.256,0.292 -0.448,0.635 -0.577,1.027 -0.126,0.391 -0.191,0.815 -0.191,1.272 0,0.455 0.065,0.881 0.191,1.277" /><path
       inkscape:connector-curvature="0"
       id="path26442"
       style="fill:#176fc1;fill-opacity:1;fill-rule:nonzero;stroke:none;stroke-width:0.1"
       d="m 330.246,331.886 v -1.308 h 0.023 c 0.248,0.504 0.553,0.877 0.912,1.117 0.359,0.239 0.816,0.352 1.368,0.336 v -1.08 c -0.408,0 -0.756,-0.057 -1.044,-0.168 -0.288,-0.113 -0.52,-0.276 -0.696,-0.492 -0.176,-0.217 -0.304,-0.479 -0.384,-0.787 -0.08,-0.307 -0.12,-0.661 -0.12,-1.062 v -2.76 h -1.02 v 6.204 h 0.961" /><path
       inkscape:connector-curvature="0"
       id="path26444"
       style="fill:#176fc1;fill-opacity:1;fill-rule:nonzero;stroke:none;stroke-width:0.1"
       d="m 339.136,325.682 v 6.097 h -2.207 v 0.816 c 0.287,0 0.567,0.022 0.84,0.065 0.271,0.045 0.518,0.127 0.738,0.246 0.219,0.121 0.405,0.284 0.558,0.492 0.151,0.208 0.256,0.473 0.311,0.792 h 0.781 v -8.508 h -1.021" /><path
       inkscape:connector-curvature="0"
       id="path26446"
       style="fill:#176fc1;fill-opacity:1;fill-rule:nonzero;stroke:none;stroke-width:0.1"
       d="m 343.217,332.379 c 0.112,0.367 0.286,0.685 0.523,0.953 0.235,0.268 0.529,0.478 0.881,0.631 0.352,0.151 0.751,0.227 1.201,0.227 0.367,0 0.713,-0.054 1.037,-0.161 0.324,-0.109 0.606,-0.265 0.845,-0.469 0.241,-0.204 0.431,-0.458 0.571,-0.761 0.14,-0.305 0.211,-0.657 0.211,-1.057 0,-0.375 -0.059,-0.707 -0.175,-0.996 -0.116,-0.287 -0.271,-0.545 -0.462,-0.774 -0.191,-0.228 -0.412,-0.433 -0.66,-0.618 -0.248,-0.184 -0.504,-0.36 -0.768,-0.528 -0.263,-0.16 -0.528,-0.317 -0.793,-0.474 -0.263,-0.155 -0.506,-0.322 -0.724,-0.498 -0.221,-0.175 -0.408,-0.366 -0.565,-0.569 -0.156,-0.205 -0.258,-0.439 -0.306,-0.703 h 4.369 v -0.9 h -5.557 c 0.04,0.504 0.13,0.935 0.27,1.29 0.14,0.356 0.318,0.666 0.534,0.93 0.216,0.264 0.46,0.496 0.732,0.696 0.272,0.201 0.556,0.388 0.852,0.564 0.36,0.224 0.677,0.431 0.948,0.619 0.272,0.187 0.498,0.377 0.678,0.569 0.179,0.193 0.316,0.4 0.408,0.624 0.092,0.225 0.139,0.485 0.139,0.78 0,0.232 -0.045,0.443 -0.133,0.63 -0.088,0.188 -0.206,0.35 -0.354,0.487 -0.148,0.135 -0.322,0.24 -0.522,0.311 -0.2,0.072 -0.412,0.109 -0.636,0.109 -0.297,0 -0.551,-0.063 -0.762,-0.187 -0.212,-0.124 -0.386,-0.286 -0.522,-0.485 -0.136,-0.201 -0.233,-0.427 -0.294,-0.679 -0.061,-0.252 -0.086,-0.506 -0.078,-0.761 h -1.02 c -0.024,0.432 0.02,0.832 0.132,1.2" /><path
       inkscape:connector-curvature="0"
       id="path26448"
       style="fill:#176fc1;fill-opacity:1;fill-rule:nonzero;stroke:none;stroke-width:0.1"
       d="m 350.843,328.797 c 0.02,-0.397 0.084,-0.768 0.192,-1.117 0.108,-0.348 0.282,-0.641 0.522,-0.881 0.239,-0.241 0.575,-0.361 1.008,-0.361 0.432,0 0.768,0.12 1.009,0.361 0.239,0.24 0.413,0.533 0.521,0.881 0.108,0.349 0.172,0.72 0.192,1.117 0.019,0.395 0.03,0.753 0.03,1.074 0,0.207 -0.002,0.437 -0.006,0.689 -0.005,0.252 -0.024,0.504 -0.06,0.756 -0.037,0.252 -0.088,0.498 -0.156,0.738 -0.068,0.241 -0.168,0.45 -0.301,0.63 -0.131,0.181 -0.297,0.325 -0.498,0.439 -0.199,0.111 -0.443,0.168 -0.731,0.168 -0.288,0 -0.532,-0.057 -0.732,-0.168 -0.201,-0.114 -0.367,-0.258 -0.498,-0.439 -0.132,-0.18 -0.232,-0.389 -0.3,-0.63 -0.069,-0.24 -0.12,-0.486 -0.157,-0.738 -0.035,-0.252 -0.055,-0.504 -0.059,-0.756 -0.004,-0.252 -0.006,-0.482 -0.006,-0.689 0,-0.321 0.01,-0.679 0.03,-1.074 z m -1.086,2.033 c 0.016,0.336 0.056,0.664 0.119,0.984 0.065,0.32 0.157,0.624 0.277,0.912 0.12,0.288 0.284,0.54 0.492,0.756 0.208,0.217 0.47,0.389 0.786,0.516 0.316,0.129 0.693,0.192 1.134,0.192 0.44,0 0.817,-0.063 1.134,-0.192 0.316,-0.127 0.578,-0.299 0.786,-0.516 0.208,-0.216 0.372,-0.468 0.492,-0.756 0.12,-0.288 0.212,-0.592 0.276,-0.912 0.064,-0.32 0.104,-0.648 0.119,-0.984 0.017,-0.336 0.025,-0.66 0.025,-0.972 0,-0.311 -0.008,-0.636 -0.025,-0.972 -0.015,-0.336 -0.055,-0.664 -0.119,-0.984 -0.064,-0.32 -0.156,-0.622 -0.276,-0.906 -0.12,-0.283 -0.284,-0.533 -0.492,-0.75 -0.208,-0.215 -0.468,-0.386 -0.781,-0.51 -0.311,-0.123 -0.691,-0.186 -1.139,-0.186 -0.441,0 -0.818,0.063 -1.134,0.186 -0.316,0.124 -0.578,0.295 -0.786,0.51 -0.208,0.217 -0.372,0.467 -0.492,0.75 -0.12,0.284 -0.212,0.586 -0.277,0.906 -0.063,0.32 -0.103,0.648 -0.119,0.984 -0.016,0.336 -0.024,0.661 -0.024,0.972 0,0.312 0.008,0.636 0.024,0.972" /><path
       inkscape:connector-curvature="0"
       id="path26450"
       style="fill:#176fc1;fill-opacity:1;fill-rule:nonzero;stroke:none;stroke-width:0.1"
       d="m 361.391,329.684 c -0.076,0.277 -0.192,0.523 -0.349,0.739 -0.156,0.215 -0.355,0.387 -0.599,0.515 -0.244,0.128 -0.531,0.193 -0.858,0.193 -0.344,0 -0.636,-0.069 -0.877,-0.204 -0.24,-0.136 -0.435,-0.314 -0.587,-0.535 -0.153,-0.22 -0.262,-0.47 -0.331,-0.75 -0.068,-0.28 -0.101,-0.564 -0.101,-0.851 0,-0.305 0.036,-0.599 0.107,-0.883 0.073,-0.283 0.187,-0.533 0.342,-0.75 0.156,-0.216 0.358,-0.39 0.608,-0.522 0.247,-0.132 0.546,-0.198 0.899,-0.198 0.351,0 0.645,0.068 0.882,0.204 0.236,0.136 0.426,0.317 0.57,0.54 0.144,0.224 0.248,0.48 0.312,0.769 0.063,0.287 0.096,0.584 0.096,0.887 0,0.289 -0.039,0.57 -0.114,0.846 z m -3.666,2.202 v -0.839 h 0.024 c 0.168,0.343 0.432,0.593 0.791,0.75 0.361,0.156 0.756,0.234 1.189,0.234 0.479,0 0.897,-0.089 1.254,-0.265 0.356,-0.176 0.651,-0.414 0.888,-0.714 0.236,-0.3 0.414,-0.646 0.534,-1.038 0.12,-0.391 0.18,-0.807 0.18,-1.248 0,-0.44 -0.058,-0.856 -0.174,-1.248 -0.117,-0.391 -0.292,-0.733 -0.529,-1.026 -0.235,-0.291 -0.531,-0.522 -0.886,-0.69 -0.358,-0.168 -0.772,-0.252 -1.243,-0.252 -0.152,0 -0.322,0.016 -0.51,0.048 -0.189,0.033 -0.374,0.084 -0.558,0.156 -0.184,0.072 -0.358,0.17 -0.522,0.295 -0.164,0.123 -0.302,0.277 -0.414,0.462 h -0.024 v -3.193 h -1.021 v 8.568 h 1.021" /><path
       inkscape:connector-curvature="0"
       id="path26452"
       style="fill:#176fc1;fill-opacity:1;fill-rule:nonzero;stroke:none;stroke-width:0.1"
       d="m 363.292,331.886 h 1.309 l 1.487,-2.171 1.548,2.171 h 1.225 l -2.137,-2.855 2.4,-3.349 h -1.308 l -1.728,2.568 -1.727,-2.568 h -1.237 l 2.329,3.265 -2.161,2.939" /><path
       inkscape:connector-curvature="0"
       id="path26454"
       style="fill:#176fc1;fill-opacity:1;fill-rule:nonzero;stroke:none;stroke-width:0.1"
       d="m 379.193,329.127 v -0.817 h -2.616 v -2.628 h -0.816 v 2.628 h -2.616 v 0.817 h 2.616 v 2.627 h 0.816 v -2.627 h 2.616" /><path
       inkscape:connector-curvature="0"
       id="path26456"
       style="fill:#ffffff;fill-opacity:1;fill-rule:evenodd;stroke:none;stroke-width:0.1"
       d="m 152.608,168.545 c -8.994,0 -16.288,-7.293 -16.288,-16.29 0,-7.197 4.667,-13.302 11.14,-15.456 0.815,-0.15 1.112,0.353 1.112,0.785 0,0.387 -0.014,1.411 -0.022,2.77 -4.531,-0.984 -5.487,2.184 -5.487,2.184 -0.741,1.882 -1.809,2.383 -1.809,2.383 -1.479,1.01 0.112,0.99 0.112,0.99 1.635,-0.115 2.495,-1.679 2.495,-1.679 1.453,-2.489 3.813,-1.77 4.741,-1.353 0.148,1.052 0.569,1.77 1.034,2.177 -3.617,0.411 -7.42,1.809 -7.42,8.051 0,1.778 0.635,3.233 1.677,4.371 -0.168,0.412 -0.727,2.069 0.16,4.311 0,0 1.367,0.438 4.479,-1.67 1.299,0.362 2.693,0.542 4.078,0.549 1.384,-0.007 2.777,-0.187 4.078,-0.549 3.11,2.108 4.475,1.67 4.475,1.67 0.889,-2.242 0.33,-3.899 0.163,-4.311 1.044,-1.138 1.674,-2.593 1.674,-4.371 0,-6.258 -3.809,-7.635 -7.437,-8.038 0.584,-0.503 1.105,-1.497 1.105,-3.016 0,-2.178 -0.02,-3.935 -0.02,-4.469 0,-0.436 0.294,-0.943 1.12,-0.784 6.468,2.159 11.131,8.26 11.131,15.455 0,8.997 -7.294,16.29 -16.291,16.29" /><path
       inkscape:connector-curvature="0"
       id="path26458"
       style="fill:#ffffff;fill-opacity:1;fill-rule:evenodd;stroke:none;stroke-width:0.1"
       d="m 350.609,217.554 c -33.347,0 -60.388,-27.035 -60.388,-60.387 0,-26.681 17.303,-49.317 41.297,-57.3022 3.018,-0.5589 4.126,1.3102 4.126,2.9052 0,1.44 -0.056,6.197 -0.082,11.243 -16.8,-3.653 -20.345,7.125 -20.345,7.125 -2.747,6.98 -6.705,8.836 -6.705,8.836 -5.479,3.748 0.413,3.671 0.413,3.671 6.064,-0.425 9.257,-6.223 9.257,-6.223 5.386,-9.232 14.127,-6.563 17.573,-5.02 0.542,3.902 2.107,6.568 3.834,8.075 -13.413,1.527 -27.513,6.705 -27.513,29.844 0,6.593 2.359,11.98 6.222,16.209 -0.627,1.522 -2.694,7.663 0.585,15.981 0,0 5.071,1.623 16.611,-6.19 4.817,1.338 9.983,2.009 15.115,2.032 5.132,-0.023 10.302,-0.694 15.128,-2.032 11.526,7.813 16.59,6.19 16.59,6.19 3.287,-8.318 1.219,-14.459 0.592,-15.981 3.872,-4.229 6.215,-9.616 6.215,-16.209 0,-23.194 -14.127,-28.301 -27.574,-29.796 2.166,-1.874 4.096,-5.549 4.096,-11.183 0,-8.079 -0.07,-14.582 -0.07,-16.572 0,-1.607 1.087,-3.4899 4.148,-2.897 23.981,7.994 41.262,30.622 41.262,57.294 0,33.352 -27.037,60.387 -60.387,60.387" /><path
       inkscape:connector-curvature="0"
       id="path26460"
       style="fill:#ffffff;fill-opacity:1;fill-rule:nonzero;stroke:none;stroke-width:0.1"
       d="m 313.093,130.851 c -0.133,-0.301 -0.605,-0.39 -1.035,-0.184 -0.438,0.197 -0.684,0.606 -0.542,0.907 0.13,0.309 0.603,0.394 1.04,0.189 0.439,-0.198 0.689,-0.611 0.537,-0.912 v 0" /><path
       inkscape:connector-curvature="0"
       id="path26462"
       style="fill:#ffffff;fill-opacity:1;fill-rule:nonzero;stroke:none;stroke-width:0.1"
       d="m 315.539,128.123 c -0.288,-0.267 -0.851,-0.143 -1.233,0.279 -0.395,0.421 -0.469,0.984 -0.177,1.255 0.297,0.267 0.843,0.142 1.239,-0.279 0.395,-0.426 0.472,-0.985 0.171,-1.255 v 0" /><path
       inkscape:connector-curvature="0"
       id="path26464"
       style="fill:#ffffff;fill-opacity:1;fill-rule:nonzero;stroke:none;stroke-width:0.1"
       d="m 317.92,124.645 c -0.37,-0.257 -0.975,-0.016 -1.349,0.521 -0.37,0.537 -0.37,1.181 0.008,1.439 0.375,0.258 0.971,0.026 1.35,-0.507 0.369,-0.545 0.369,-1.19 -0.009,-1.453 v 0" /><path
       inkscape:connector-curvature="0"
       id="path26466"
       style="fill:#ffffff;fill-opacity:1;fill-rule:nonzero;stroke:none;stroke-width:0.1"
       d="m 321.182,121.285 c -0.331,-0.365 -1.036,-0.267 -1.552,0.231 -0.528,0.487 -0.675,1.178 -0.343,1.543 0.335,0.366 1.044,0.263 1.564,-0.231 0.524,-0.486 0.684,-1.182 0.331,-1.543 v 0" /><path
       inkscape:connector-curvature="0"
       id="path26468"
       style="fill:#ffffff;fill-opacity:1;fill-rule:nonzero;stroke:none;stroke-width:0.1"
       d="m 325.682,119.334 c -0.146,-0.473 -0.825,-0.688 -1.509,-0.487 -0.683,0.207 -1.13,0.761 -0.992,1.239 0.142,0.476 0.824,0.7 1.513,0.485 0.682,-0.206 1.13,-0.756 0.988,-1.237 v 0" /><path
       inkscape:connector-curvature="0"
       id="path26470"
       style="fill:#ffffff;fill-opacity:1;fill-rule:nonzero;stroke:none;stroke-width:0.1"
       d="m 330.624,118.972 c 0.017,-0.498 -0.563,-0.911 -1.281,-0.919 -0.722,-0.017 -1.306,0.386 -1.314,0.876 0,0.503 0.567,0.912 1.289,0.924 0.718,0.014 1.306,-0.386 1.306,-0.881 v 0" /><path
       inkscape:connector-curvature="0"
       id="path26472"
       style="fill:#ffffff;fill-opacity:1;fill-rule:nonzero;stroke:none;stroke-width:0.1"
       d="m 335.223,119.755 c 0.086,-0.486 -0.413,-0.985 -1.126,-1.117 -0.701,-0.129 -1.35,0.171 -1.439,0.653 -0.087,0.498 0.421,0.997 1.121,1.126 0.714,0.124 1.353,-0.168 1.444,-0.662 v 0" /><path
       inkscape:connector-curvature="0"
       id="path26474"
       style="fill:none;stroke:#3a7fc3;stroke-width:1;stroke-linecap:round;stroke-linejoin:miter;stroke-miterlimit:10;stroke-dasharray:none;stroke-opacity:1"
       d="m 224.898,223.488 v -0.5" /><path
       inkscape:connector-curvature="0"
       id="path26476"
       style="fill:none;stroke:#3a7fc3;stroke-width:1;stroke-linecap:round;stroke-linejoin:miter;stroke-miterlimit:10;stroke-dasharray:0.99995, 1.9999;stroke-dashoffset:0;stroke-opacity:1"
       d="M 224.898,220.988 V 86.9949" /><path
       inkscape:connector-curvature="0"
       id="path26478"
       style="fill:none;stroke:#3a7fc3;stroke-width:1;stroke-linecap:round;stroke-linejoin:miter;stroke-miterlimit:10;stroke-dasharray:none;stroke-opacity:1"
       d="m 224.898,85.9949 v -0.5" /><path
       inkscape:connector-curvature="0"
       id="path26480"
       style="fill:#176fc1;fill-opacity:1;fill-rule:nonzero;stroke:none;stroke-width:0.1"
       d="m 133.276,71.4789 c -0.381,0.277 -0.866,0.4141 -1.458,0.4141 -0.24,0 -0.476,-0.0239 -0.708,-0.0711 -0.233,-0.0489 -0.438,-0.1289 -0.618,-0.2399 -0.18,-0.114 -0.324,-0.2629 -0.433,-0.4511 -0.107,-0.1879 -0.161,-0.4219 -0.161,-0.702 0,-0.2629 0.077,-0.4777 0.234,-0.6418 0.155,-0.1641 0.364,-0.298 0.624,-0.4019 0.26,-0.1043 0.553,-0.1903 0.882,-0.2582 0.328,-0.068 0.662,-0.1418 1.002,-0.2211 0.34,-0.0797 0.673,-0.175 1.002,-0.2829 0.328,-0.1082 0.622,-0.2539 0.882,-0.4378 0.26,-0.1832 0.468,-0.4161 0.624,-0.6954 0.156,-0.2808 0.234,-0.6328 0.234,-1.0566 0,-0.4562 -0.102,-0.8453 -0.306,-1.1703 -0.205,-0.3238 -0.466,-0.5879 -0.786,-0.7918 -0.32,-0.2039 -0.678,-0.352 -1.074,-0.4441 -0.396,-0.0918 -0.79,-0.1379 -1.182,-0.1379 -0.48,0 -0.934,0.0597 -1.362,0.18 -0.428,0.12 -0.804,0.302 -1.128,0.5457 -0.324,0.2442 -0.58,0.5571 -0.768,0.9372 -0.188,0.3789 -0.282,0.8289 -0.282,1.3492 h 1.08 c 0,-0.3602 0.069,-0.6703 0.21,-0.9301 0.14,-0.2602 0.324,-0.4731 0.552,-0.641 0.228,-0.168 0.493,-0.293 0.798,-0.3731 0.304,-0.08 0.615,-0.1191 0.936,-0.1191 0.256,0 0.514,0.023 0.774,0.0723 0.26,0.0468 0.494,0.1289 0.702,0.2457 0.208,0.1152 0.376,0.273 0.504,0.473 0.128,0.2012 0.192,0.457 0.192,0.768 0,0.2961 -0.079,0.5363 -0.234,0.7203 -0.156,0.1828 -0.365,0.334 -0.624,0.45 -0.261,0.116 -0.555,0.2098 -0.882,0.2816 -0.328,0.0731 -0.662,0.1473 -1.002,0.2231 -0.34,0.075 -0.674,0.1633 -1.002,0.264 -0.328,0.0993 -0.623,0.2313 -0.882,0.395 -0.26,0.164 -0.468,0.3761 -0.624,0.6363 -0.156,0.2598 -0.234,0.5859 -0.234,0.9789 0,0.4309 0.088,0.8051 0.264,1.1211 0.176,0.316 0.41,0.5758 0.702,0.7808 0.292,0.2032 0.624,0.3551 0.996,0.4551 0.372,0.1 0.754,0.15 1.146,0.15 0.44,0 0.848,-0.0531 1.224,-0.1562 0.376,-0.1039 0.706,-0.268 0.989,-0.4918 0.285,-0.2242 0.509,-0.5063 0.673,-0.8461 0.163,-0.3399 0.254,-0.7461 0.27,-1.218 h -1.08 c -0.065,0.6168 -0.286,1.0621 -0.666,1.3379" /><path
       inkscape:connector-curvature="0"
       id="path26482"
       style="fill:#176fc1;fill-opacity:1;fill-rule:nonzero;stroke:none;stroke-width:0.1"
       d="M 137.554,70.2852 V 69.373 h 0.024 c 0.463,0.7051 1.131,1.0559 2.003,1.0559 0.385,0 0.732,-0.0801 1.044,-0.2398 0.313,-0.1602 0.533,-0.4313 0.661,-0.8161 0.208,0.336 0.482,0.595 0.822,0.7801 0.34,0.1848 0.714,0.2758 1.121,0.2758 0.312,0 0.595,-0.034 0.847,-0.1008 0.252,-0.0679 0.467,-0.175 0.648,-0.3179 0.18,-0.1454 0.319,-0.3313 0.419,-0.559 0.101,-0.2282 0.15,-0.5024 0.15,-0.8223 V 64.082 h -1.019 v 4.0672 c 0,0.193 -0.017,0.3719 -0.049,0.5399 -0.031,0.1679 -0.091,0.3148 -0.179,0.4379 -0.089,0.125 -0.211,0.2218 -0.366,0.2949 -0.156,0.0722 -0.358,0.107 -0.606,0.107 -0.504,0 -0.9,-0.1437 -1.188,-0.432 -0.288,-0.2879 -0.432,-0.6719 -0.432,-1.152 V 64.082 h -1.021 v 4.0672 c 0,0.1996 -0.018,0.384 -0.053,0.552 -0.036,0.1679 -0.098,0.3136 -0.186,0.4379 -0.089,0.1238 -0.206,0.2199 -0.354,0.289 -0.149,0.068 -0.339,0.1008 -0.57,0.1008 -0.296,0 -0.55,-0.059 -0.762,-0.1801 -0.213,-0.1199 -0.385,-0.2629 -0.516,-0.4308 -0.132,-0.168 -0.228,-0.3418 -0.288,-0.5231 -0.061,-0.1801 -0.09,-0.3301 -0.09,-0.45 V 64.082 h -1.02 v 6.2032 h 0.96" /><path
       inkscape:connector-curvature="0"
       id="path26484"
       style="fill:#176fc1;fill-opacity:1;fill-rule:nonzero;stroke:none;stroke-width:0.1"
       d="m 150.165,67.0762 c -0.208,-0.0453 -0.425,-0.0801 -0.653,-0.109 -0.228,-0.0281 -0.459,-0.059 -0.691,-0.0961 -0.232,-0.0352 -0.44,-0.0941 -0.623,-0.1742 -0.185,-0.0797 -0.335,-0.193 -0.451,-0.3418 -0.116,-0.1481 -0.173,-0.3492 -0.173,-0.6051 0,-0.168 0.033,-0.3109 0.101,-0.4262 0.068,-0.1168 0.156,-0.2109 0.264,-0.2828 0.108,-0.0711 0.236,-0.123 0.385,-0.1558 0.148,-0.0321 0.297,-0.0473 0.449,-0.0473 0.336,0 0.624,0.0449 0.865,0.1371 0.239,0.0922 0.435,0.2082 0.587,0.3488 0.152,0.1391 0.265,0.291 0.336,0.4551 0.072,0.1641 0.108,0.318 0.108,0.4633 v 1.043 c -0.128,-0.0961 -0.296,-0.1661 -0.504,-0.209 z m 1.429,-3.1274 c -0.265,0 -0.474,0.0742 -0.631,0.2231 -0.155,0.1472 -0.234,0.389 -0.234,0.725 -0.28,-0.336 -0.606,-0.5778 -0.978,-0.725 -0.372,-0.1489 -0.774,-0.2231 -1.206,-0.2231 -0.279,0 -0.544,0.0301 -0.792,0.0903 -0.248,0.0597 -0.466,0.1597 -0.653,0.3007 -0.188,0.1391 -0.336,0.3192 -0.444,0.5391 -0.109,0.2199 -0.162,0.4859 -0.162,0.7992 0,0.3508 0.06,0.6391 0.179,0.8629 0.12,0.2238 0.278,0.4059 0.474,0.5469 0.196,0.1391 0.42,0.2461 0.672,0.318 0.252,0.0711 0.51,0.1312 0.775,0.18 0.279,0.0551 0.546,0.0973 0.798,0.125 0.251,0.0282 0.474,0.068 0.666,0.1211 0.191,0.0508 0.343,0.127 0.456,0.227 0.111,0.1012 0.168,0.2461 0.168,0.439 0,0.2231 -0.042,0.4032 -0.126,0.5391 -0.084,0.1367 -0.193,0.2399 -0.325,0.3117 -0.131,0.0731 -0.28,0.1211 -0.444,0.1453 -0.164,0.0231 -0.326,0.0348 -0.485,0.0348 -0.432,0 -0.792,-0.082 -1.08,-0.2457 -0.289,-0.1641 -0.445,-0.4742 -0.469,-0.9301 h -1.02 c 0.016,0.384 0.096,0.7078 0.241,0.9731 0.144,0.2636 0.335,0.4769 0.575,0.641 0.24,0.1637 0.516,0.2828 0.828,0.3547 0.312,0.0711 0.64,0.107 0.984,0.107 0.281,0 0.558,-0.0187 0.834,-0.0598 0.277,-0.039 0.527,-0.1211 0.75,-0.2461 0.224,-0.123 0.405,-0.298 0.54,-0.5218 0.136,-0.2242 0.204,-0.5153 0.204,-0.8762 v -3.1918 c 0,-0.2402 0.015,-0.416 0.042,-0.5273 0.028,-0.1129 0.123,-0.168 0.283,-0.168 0.088,0 0.191,0.0191 0.312,0.059 v -0.7918 c -0.177,-0.1031 -0.42,-0.1563 -0.732,-0.1563" /><path
       inkscape:connector-curvature="0"
       id="path26486"
       style="fill:#176fc1;fill-opacity:1;fill-rule:nonzero;stroke:none;stroke-width:0.1"
       d="M 154.354,72.6492 V 64.082 h -1.021 v 8.5672 h 1.021" /><path
       inkscape:connector-curvature="0"
       id="path26488"
       style="fill:#176fc1;fill-opacity:1;fill-rule:nonzero;stroke:none;stroke-width:0.1"
       d="M 157.017,72.6492 V 64.082 h -1.02 v 8.5672 h 1.02" /><path
       inkscape:connector-curvature="0"
       id="path26490"
       style="fill:#176fc1;fill-opacity:1;fill-rule:nonzero;stroke:none;stroke-width:0.1"
       d="m 101.854,54.9859 v 0.8993 h 1.044 v 0.9238 c 0,0.5039 0.146,0.8859 0.438,1.1461 0.292,0.2597 0.718,0.391 1.278,0.391 0.096,0 0.206,-0.0082 0.33,-0.0242 0.124,-0.0168 0.234,-0.041 0.33,-0.0719 v -0.8891 c -0.088,0.0321 -0.184,0.0551 -0.288,0.0672 -0.104,0.011 -0.2,0.0168 -0.288,0.0168 -0.248,0 -0.44,-0.048 -0.576,-0.1429 -0.136,-0.0969 -0.204,-0.2809 -0.204,-0.552 v -0.8648 h 1.2 v -0.8993 h -1.2 v -5.305 h -1.02 v 5.305 h -1.044" /><path
       inkscape:connector-curvature="0"
       id="path26492"
       style="fill:#176fc1;fill-opacity:1;fill-rule:nonzero;stroke:none;stroke-width:0.1"
       d="m 106.924,51.775 c 0.099,-0.2918 0.238,-0.5352 0.414,-0.732 0.176,-0.1961 0.382,-0.3461 0.617,-0.45 0.236,-0.1032 0.487,-0.1559 0.75,-0.1559 0.265,0 0.515,0.0527 0.75,0.1559 0.236,0.1039 0.442,0.2539 0.619,0.45 0.175,0.1968 0.314,0.4402 0.414,0.732 0.1,0.2922 0.15,0.6262 0.15,1.002 0,0.3769 -0.05,0.7101 -0.15,1.0019 -0.1,0.293 -0.239,0.5383 -0.414,0.7383 -0.177,0.2 -0.383,0.3519 -0.619,0.4558 -0.235,0.1051 -0.485,0.1571 -0.75,0.1571 -0.263,0 -0.514,-0.052 -0.75,-0.1571 -0.235,-0.1039 -0.441,-0.2558 -0.617,-0.4558 -0.176,-0.2 -0.315,-0.4453 -0.414,-0.7383 -0.1,-0.2918 -0.15,-0.625 -0.15,-1.0019 0,-0.3758 0.05,-0.7098 0.15,-1.002 z m -1.038,2.2801 c 0.128,0.3961 0.319,0.7398 0.576,1.0328 0.256,0.291 0.572,0.5211 0.948,0.6891 0.376,0.1679 0.808,0.2519 1.295,0.2519 0.497,0 0.931,-0.084 1.303,-0.2519 0.372,-0.168 0.685,-0.3981 0.942,-0.6891 0.255,-0.293 0.447,-0.6367 0.576,-1.0328 0.128,-0.3949 0.192,-0.8219 0.192,-1.2781 0,-0.4551 -0.064,-0.8801 -0.192,-1.2711 -0.129,-0.393 -0.321,-0.7348 -0.576,-1.027 -0.257,-0.2918 -0.57,-0.5199 -0.942,-0.684 -0.372,-0.1629 -0.806,-0.2449 -1.303,-0.2449 -0.487,0 -0.919,0.082 -1.295,0.2449 -0.376,0.1641 -0.692,0.3922 -0.948,0.684 -0.257,0.2922 -0.448,0.634 -0.576,1.027 -0.128,0.391 -0.192,0.816 -0.192,1.2711 0,0.4562 0.064,0.8832 0.192,1.2781" /><path
       inkscape:connector-curvature="0"
       id="path26494"
       style="fill:#176fc1;fill-opacity:1;fill-rule:nonzero;stroke:none;stroke-width:0.1"
       d="m 113.842,55.8852 v -1.3071 h 0.024 c 0.248,0.5039 0.552,0.875 0.912,1.1149 0.36,0.2402 0.816,0.3519 1.368,0.3359 v -1.0801 c -0.408,0 -0.756,-0.0558 -1.044,-0.1679 -0.288,-0.111 -0.521,-0.275 -0.696,-0.4918 -0.176,-0.2153 -0.305,-0.4782 -0.384,-0.7852 -0.08,-0.309 -0.12,-0.6617 -0.12,-1.0629 v -2.7601 h -1.02 v 6.2043 h 0.96" /><path
       inkscape:connector-curvature="0"
       id="path26496"
       style="fill:#176fc1;fill-opacity:1;fill-rule:nonzero;stroke:none;stroke-width:0.1"
       d="m 122.733,49.6809 v 6.0961 h -2.208 v 0.816 c 0.288,0 0.568,0.0218 0.84,0.0672 0.272,0.0429 0.518,0.125 0.738,0.2457 0.22,0.1191 0.406,0.2832 0.559,0.491 0.151,0.2082 0.255,0.4722 0.312,0.7922 h 0.779 v -8.5082 h -1.02" /><path
       inkscape:connector-curvature="0"
       id="path26498"
       style="fill:#176fc1;fill-opacity:1;fill-rule:nonzero;stroke:none;stroke-width:0.1"
       d="m 128.829,54.1031 c -0.215,-0.0992 -0.399,-0.2359 -0.551,-0.4082 -0.152,-0.1719 -0.266,-0.3758 -0.342,-0.6109 -0.076,-0.2371 -0.114,-0.4871 -0.114,-0.75 0,-0.2641 0.04,-0.5121 0.12,-0.7442 0.079,-0.2328 0.194,-0.4316 0.342,-0.6 0.148,-0.1679 0.332,-0.3027 0.552,-0.4019 0.22,-0.1008 0.47,-0.1508 0.75,-0.1508 0.28,0 0.526,0.05 0.738,0.1508 0.212,0.0992 0.39,0.2383 0.534,0.4141 0.144,0.1761 0.254,0.3781 0.33,0.605 0.076,0.2289 0.114,0.4668 0.114,0.7149 0,0.264 -0.034,0.514 -0.102,0.75 -0.068,0.2351 -0.174,0.439 -0.318,0.6113 -0.144,0.1719 -0.324,0.3109 -0.54,0.4137 -0.216,0.1043 -0.468,0.157 -0.756,0.157 -0.288,0 -0.54,-0.0508 -0.757,-0.1508 z m 1.849,2.8379 c -0.248,0.2328 -0.576,0.3481 -0.984,0.3481 -0.432,0 -0.781,-0.1059 -1.044,-0.318 -0.264,-0.2109 -0.47,-0.4789 -0.618,-0.8031 -0.148,-0.325 -0.25,-0.6739 -0.307,-1.0508 -0.055,-0.375 -0.087,-0.7281 -0.095,-1.0563 l 0.024,-0.0238 c 0.24,0.3918 0.538,0.6758 0.894,0.852 0.356,0.1757 0.766,0.2648 1.23,0.2648 0.408,0 0.774,-0.0699 1.098,-0.2109 0.324,-0.1399 0.596,-0.334 0.816,-0.5821 0.22,-0.248 0.39,-0.539 0.51,-0.875 0.12,-0.3367 0.18,-0.7007 0.18,-1.0929 0,-0.311 -0.048,-0.6352 -0.144,-0.9711 -0.096,-0.336 -0.254,-0.643 -0.474,-0.918 -0.221,-0.2769 -0.512,-0.5039 -0.876,-0.684 -0.364,-0.1808 -0.814,-0.2699 -1.351,-0.2699 -0.631,0 -1.139,0.1281 -1.523,0.3832 -0.384,0.2559 -0.68,0.584 -0.888,0.9848 -0.209,0.3992 -0.346,0.8398 -0.414,1.3199 -0.069,0.4793 -0.102,0.943 -0.102,1.3922 0,0.5828 0.05,1.1488 0.15,1.698 0.1,0.5469 0.27,1.0328 0.51,1.4571 0.24,0.4238 0.559,0.7636 0.96,1.0199 0.4,0.2558 0.904,0.384 1.512,0.384 0.704,0 1.264,-0.1852 1.68,-0.5571 0.416,-0.3718 0.656,-0.9109 0.72,-1.6148 h -1.021 c -0.047,0.3848 -0.195,0.6918 -0.443,0.9238" /><path
       inkscape:connector-curvature="0"
       id="path26500"
       style="fill:#176fc1;fill-opacity:1;fill-rule:nonzero;stroke:none;stroke-width:0.1"
       d="m 138.316,53.6832 c -0.076,0.2758 -0.193,0.5219 -0.348,0.7387 -0.157,0.216 -0.356,0.3871 -0.6,0.5152 -0.245,0.1277 -0.531,0.193 -0.858,0.193 -0.345,0 -0.637,-0.0692 -0.876,-0.2051 -0.241,-0.1359 -0.436,-0.3141 -0.588,-0.534 -0.153,-0.2191 -0.262,-0.4691 -0.33,-0.75 -0.069,-0.2801 -0.102,-0.5629 -0.102,-0.8519 0,-0.3039 0.036,-0.5981 0.108,-0.8809 0.071,-0.2852 0.186,-0.5352 0.341,-0.75 0.157,-0.2172 0.358,-0.391 0.607,-0.523 0.247,-0.1313 0.548,-0.1981 0.9,-0.1981 0.351,0 0.646,0.0688 0.882,0.2039 0.236,0.136 0.425,0.316 0.569,0.5399 0.144,0.2242 0.249,0.4812 0.312,0.7679 0.064,0.2891 0.097,0.5844 0.097,0.8891 0,0.2871 -0.038,0.5703 -0.114,0.8453 z m -3.666,2.202 v -0.8403 h 0.024 c 0.168,0.3442 0.431,0.5942 0.792,0.75 0.36,0.1563 0.756,0.234 1.188,0.234 0.48,0 0.898,-0.0879 1.254,-0.2641 0.356,-0.175 0.651,-0.4136 0.888,-0.7128 0.236,-0.3 0.413,-0.6469 0.533,-1.0391 0.121,-0.3918 0.181,-0.8078 0.181,-1.2481 0,-0.4386 -0.058,-0.8546 -0.175,-1.2476 -0.115,-0.3922 -0.292,-0.734 -0.527,-1.025 -0.236,-0.2934 -0.533,-0.5223 -0.888,-0.6902 -0.357,-0.168 -0.771,-0.252 -1.242,-0.252 -0.153,0 -0.323,0.016 -0.511,0.0469 -0.188,0.0332 -0.374,0.084 -0.557,0.157 -0.184,0.0723 -0.359,0.1699 -0.522,0.2941 -0.164,0.1239 -0.302,0.2782 -0.414,0.4622 H 134.65 V 47.318 h -1.02 v 8.5672 h 1.02" /><path
       inkscape:connector-curvature="0"
       id="path26502"
       style="fill:#176fc1;fill-opacity:1;fill-rule:nonzero;stroke:none;stroke-width:0.1"
       d="m 140.217,55.8852 h 1.308 l 1.488,-2.1711 1.548,2.1711 h 1.225 l -2.137,-2.8563 2.4,-3.348 h -1.308 l -1.728,2.5691 -1.727,-2.5691 h -1.237 l 2.328,3.264 -2.16,2.9403" /><path
       inkscape:connector-curvature="0"
       id="path26504"
       style="fill:#176fc1;fill-opacity:1;fill-rule:nonzero;stroke:none;stroke-width:0.1"
       d="m 150.225,53.498 v -0.9609 h -3.468 v 0.9609 h 3.468" /><path
       inkscape:connector-curvature="0"
       id="path26506"
       style="fill:#176fc1;fill-opacity:1;fill-rule:nonzero;stroke:none;stroke-width:0.1"
       d="m 154.077,49.6809 v 6.0961 h -2.208 v 0.816 c 0.288,0 0.568,0.0218 0.84,0.0672 0.272,0.0429 0.518,0.125 0.738,0.2457 0.22,0.1191 0.406,0.2832 0.558,0.491 0.152,0.2082 0.256,0.4722 0.312,0.7922 h 0.78 v -8.5082 h -1.02" /><path
       inkscape:connector-curvature="0"
       id="path26508"
       style="fill:#176fc1;fill-opacity:1;fill-rule:nonzero;stroke:none;stroke-width:0.1"
       d="m 158.157,56.377 c 0.112,0.3691 0.286,0.6859 0.522,0.955 0.236,0.2668 0.53,0.477 0.882,0.6289 0.352,0.152 0.752,0.2282 1.2,0.2282 0.368,0 0.714,-0.0539 1.038,-0.1621 0.324,-0.1071 0.606,-0.2641 0.846,-0.468 0.24,-0.2039 0.43,-0.4578 0.57,-0.761 0.14,-0.3039 0.21,-0.657 0.21,-1.0558 0,-0.3774 -0.058,-0.709 -0.174,-0.9961 -0.116,-0.2891 -0.27,-0.5473 -0.462,-0.775 -0.192,-0.227 -0.412,-0.434 -0.66,-0.618 -0.248,-0.1832 -0.504,-0.359 -0.768,-0.5269 -0.264,-0.1602 -0.528,-0.3184 -0.792,-0.475 -0.264,-0.1563 -0.506,-0.3223 -0.726,-0.4981 -0.22,-0.175 -0.408,-0.3652 -0.564,-0.5699 -0.156,-0.2031 -0.258,-0.4371 -0.306,-0.7012 h 4.368 v -0.9011 h -5.556 c 0.04,0.5043 0.13,0.9339 0.27,1.2902 0.14,0.357 0.318,0.6668 0.534,0.9309 0.216,0.264 0.46,0.4949 0.732,0.6949 0.272,0.2 0.556,0.3883 0.852,0.5652 0.36,0.2231 0.676,0.4301 0.948,0.6168 0.272,0.1883 0.498,0.3793 0.678,0.5699 0.18,0.1922 0.316,0.4012 0.408,0.6242 0.092,0.2239 0.138,0.484 0.138,0.7809 0,0.2313 -0.044,0.441 -0.132,0.6301 -0.088,0.1871 -0.206,0.3492 -0.354,0.4851 -0.148,0.1368 -0.322,0.2399 -0.522,0.3118 -0.2,0.073 -0.412,0.1082 -0.636,0.1082 -0.296,0 -0.55,-0.0621 -0.762,-0.186 -0.212,-0.1242 -0.386,-0.2859 -0.522,-0.4859 -0.136,-0.1992 -0.234,-0.4262 -0.294,-0.6781 -0.06,-0.252 -0.086,-0.5059 -0.078,-0.761 h -1.02 c -0.024,0.4309 0.02,0.8321 0.132,1.1989" /><path
       inkscape:connector-curvature="0"
       id="path26510"
       style="fill:#176fc1;fill-opacity:1;fill-rule:nonzero;stroke:none;stroke-width:0.1"
       d="m 165.783,52.7949 c 0.02,-0.3957 0.085,-0.7679 0.192,-1.116 0.108,-0.3469 0.282,-0.6418 0.522,-0.8809 0.24,-0.241 0.576,-0.3609 1.008,-0.3609 0.433,0 0.768,0.1199 1.009,0.3609 0.239,0.2391 0.413,0.534 0.522,0.8809 0.107,0.3481 0.171,0.7203 0.191,1.116 0.02,0.3961 0.03,0.7551 0.03,1.0742 0,0.209 -0.002,0.4379 -0.006,0.6899 -0.004,0.2519 -0.024,0.5039 -0.06,0.7558 -0.036,0.2532 -0.087,0.4981 -0.155,0.7383 -0.069,0.2399 -0.168,0.4508 -0.301,0.6301 -0.131,0.1797 -0.297,0.327 -0.498,0.4379 -0.2,0.1121 -0.444,0.168 -0.732,0.168 -0.288,0 -0.532,-0.0559 -0.732,-0.168 -0.2,-0.1109 -0.366,-0.2582 -0.498,-0.4379 -0.132,-0.1793 -0.232,-0.3902 -0.3,-0.6301 -0.068,-0.2402 -0.12,-0.4851 -0.156,-0.7383 -0.036,-0.2519 -0.056,-0.5039 -0.06,-0.7558 -0.004,-0.252 -0.006,-0.4809 -0.006,-0.6899 0,-0.3191 0.01,-0.6781 0.03,-1.0742 z m -1.086,2.0352 c 0.016,0.3359 0.056,0.664 0.12,0.9828 0.064,0.3199 0.157,0.6242 0.276,0.9121 0.12,0.2879 0.284,0.5398 0.492,0.7559 0.208,0.216 0.47,0.3882 0.786,0.5171 0.317,0.127 0.694,0.1911 1.134,0.1911 0.44,0 0.818,-0.0641 1.135,-0.1911 0.315,-0.1289 0.577,-0.3011 0.785,-0.5171 0.208,-0.2161 0.372,-0.468 0.492,-0.7559 0.12,-0.2879 0.212,-0.5922 0.276,-0.9121 0.064,-0.3188 0.104,-0.6469 0.12,-0.9828 0.016,-0.336 0.024,-0.6602 0.024,-0.9731 0,-0.3121 -0.008,-0.6359 -0.024,-0.9718 -0.016,-0.3352 -0.056,-0.6641 -0.12,-0.9832 -0.064,-0.32 -0.156,-0.6231 -0.276,-0.9059 -0.12,-0.2852 -0.284,-0.5352 -0.492,-0.75 -0.208,-0.2172 -0.468,-0.3871 -0.78,-0.5102 -0.312,-0.125 -0.691,-0.1859 -1.14,-0.1859 -0.44,0 -0.817,0.0609 -1.134,0.1859 -0.316,0.1231 -0.578,0.293 -0.786,0.5102 -0.208,0.2148 -0.372,0.4648 -0.492,0.75 -0.119,0.2828 -0.212,0.5859 -0.276,0.9059 -0.064,0.3191 -0.104,0.648 -0.12,0.9832 -0.016,0.3359 -0.024,0.6597 -0.024,0.9718 0,0.3129 0.008,0.6371 0.024,0.9731" /><path
       inkscape:connector-curvature="0"
       id="path26512"
       style="fill:#176fc1;fill-opacity:1;fill-rule:nonzero;stroke:none;stroke-width:0.1"
       d="m 176.331,53.6832 c -0.076,0.2758 -0.192,0.5219 -0.348,0.7387 -0.156,0.216 -0.356,0.3871 -0.6,0.5152 -0.244,0.1277 -0.53,0.193 -0.858,0.193 -0.344,0 -0.636,-0.0692 -0.876,-0.2051 -0.24,-0.1359 -0.436,-0.3141 -0.588,-0.534 -0.152,-0.2191 -0.262,-0.4691 -0.33,-0.75 -0.068,-0.2801 -0.102,-0.5629 -0.102,-0.8519 0,-0.3039 0.036,-0.5981 0.108,-0.8809 0.072,-0.2852 0.186,-0.5352 0.342,-0.75 0.156,-0.2172 0.358,-0.391 0.607,-0.523 0.247,-0.1313 0.547,-0.1981 0.899,-0.1981 0.352,0 0.646,0.0688 0.882,0.2039 0.236,0.136 0.426,0.316 0.57,0.5399 0.144,0.2242 0.248,0.4812 0.312,0.7679 0.064,0.2891 0.096,0.5844 0.096,0.8891 0,0.2871 -0.038,0.5703 -0.114,0.8453 z m -3.666,2.202 v -0.8403 h 0.024 c 0.168,0.3442 0.432,0.5942 0.792,0.75 0.36,0.1563 0.756,0.234 1.188,0.234 0.48,0 0.898,-0.0879 1.254,-0.2641 0.356,-0.175 0.652,-0.4136 0.888,-0.7128 0.236,-0.3 0.414,-0.6469 0.534,-1.0391 0.12,-0.3918 0.18,-0.8078 0.18,-1.2481 0,-0.4386 -0.058,-0.8546 -0.174,-1.2476 -0.116,-0.3922 -0.292,-0.734 -0.528,-1.025 -0.236,-0.2934 -0.532,-0.5223 -0.887,-0.6902 -0.357,-0.168 -0.771,-0.252 -1.243,-0.252 -0.152,0 -0.322,0.016 -0.51,0.0469 -0.188,0.0332 -0.374,0.084 -0.558,0.157 -0.184,0.0723 -0.358,0.1699 -0.521,0.2941 -0.165,0.1239 -0.303,0.2782 -0.415,0.4622 h -0.024 V 47.318 h -1.02 v 8.5672 h 1.02" /><path
       inkscape:connector-curvature="0"
       id="path26514"
       style="fill:#176fc1;fill-opacity:1;fill-rule:nonzero;stroke:none;stroke-width:0.1"
       d="m 178.233,55.8852 h 1.308 l 1.488,-2.1711 1.548,2.1711 h 1.224 l -2.136,-2.8563 2.4,-3.348 h -1.308 l -1.728,2.5691 -1.728,-2.5691 h -1.236 l 2.328,3.264 -2.16,2.9403" /><path
       inkscape:connector-curvature="0"
       id="path26516"
       style="fill:#176fc1;fill-opacity:1;fill-rule:nonzero;stroke:none;stroke-width:0.1"
       d="m 335.633,72.65 v -7.607 h 4.536 v -0.961 h -5.675 v 8.568 h 1.139" /><path
       inkscape:connector-curvature="0"
       id="path26518"
       style="fill:#176fc1;fill-opacity:1;fill-rule:nonzero;stroke:none;stroke-width:0.1"
       d="m 344.333,67.0762 c -0.209,-0.0442 -0.425,-0.0801 -0.654,-0.1082 -0.228,-0.0282 -0.459,-0.0598 -0.69,-0.095 -0.232,-0.0371 -0.441,-0.0949 -0.624,-0.1742 -0.184,-0.0797 -0.334,-0.1949 -0.45,-0.3429 -0.117,-0.1469 -0.173,-0.35 -0.173,-0.6059 0,-0.168 0.033,-0.3102 0.101,-0.4262 0.068,-0.1148 0.156,-0.209 0.264,-0.2808 0.107,-0.0719 0.236,-0.125 0.385,-0.1571 0.147,-0.032 0.296,-0.048 0.449,-0.048 0.336,0 0.624,0.0473 0.864,0.1383 0.239,0.0918 0.436,0.2078 0.588,0.3476 0.151,0.141 0.265,0.2934 0.336,0.4571 0.071,0.1632 0.108,0.3171 0.108,0.4613 v 1.0449 c -0.129,-0.0973 -0.297,-0.166 -0.504,-0.2109 z m 1.428,-3.125 c -0.264,0 -0.474,0.073 -0.631,0.2207 -0.155,0.148 -0.233,0.3902 -0.233,0.7261 -0.28,-0.3359 -0.607,-0.5781 -0.978,-0.7261 -0.373,-0.1477 -0.774,-0.2207 -1.207,-0.2207 -0.279,0 -0.543,0.0289 -0.791,0.0898 -0.248,0.059 -0.467,0.1602 -0.654,0.2988 -0.188,0.1403 -0.336,0.3204 -0.443,0.5411 -0.11,0.2191 -0.162,0.4863 -0.162,0.7972 0,0.352 0.059,0.6399 0.179,0.8649 0.119,0.223 0.278,0.405 0.474,0.5449 0.196,0.1402 0.42,0.2461 0.672,0.318 0.252,0.0722 0.51,0.1332 0.774,0.18 0.279,0.0563 0.546,0.0981 0.798,0.127 0.252,0.0269 0.474,0.0672 0.666,0.1191 0.192,0.0532 0.344,0.1289 0.456,0.2282 0.111,0.1 0.168,0.2457 0.168,0.4378 0,0.2239 -0.042,0.404 -0.126,0.5411 -0.084,0.1347 -0.192,0.239 -0.324,0.3109 -0.132,0.0719 -0.28,0.1211 -0.445,0.1441 -0.164,0.0239 -0.326,0.0368 -0.485,0.0368 -0.432,0 -0.792,-0.0829 -1.08,-0.2457 -0.288,-0.1641 -0.444,-0.475 -0.468,-0.9313 h -1.02 c 0.016,0.384 0.096,0.7082 0.24,0.9723 0.144,0.2636 0.336,0.4777 0.575,0.6418 0.24,0.1648 0.517,0.282 0.828,0.3539 0.313,0.0722 0.641,0.1082 0.985,0.1082 0.28,0 0.558,-0.0199 0.834,-0.059 0.276,-0.041 0.526,-0.1231 0.75,-0.2461 0.224,-0.125 0.404,-0.2988 0.54,-0.523 0.135,-0.2231 0.204,-0.5161 0.204,-0.8758 v -3.191 c 0,-0.2403 0.014,-0.4161 0.042,-0.5293 0.028,-0.1118 0.122,-0.168 0.282,-0.168 0.088,0 0.191,0.0203 0.313,0.0601 v -0.7921 c -0.177,-0.1039 -0.42,-0.1547 -0.733,-0.1547" /><path
       inkscape:connector-curvature="0"
       id="path26520"
       style="fill:#176fc1;fill-opacity:1;fill-rule:nonzero;stroke:none;stroke-width:0.1"
       d="m 348.365,70.2871 v -1.309 h 0.023 c 0.248,0.5039 0.553,0.8758 0.912,1.1168 0.361,0.2391 0.817,0.3512 1.369,0.3352 V 69.35 c -0.408,0 -0.756,-0.0551 -1.045,-0.168 -0.287,-0.1121 -0.519,-0.2761 -0.695,-0.4922 -0.176,-0.216 -0.305,-0.4769 -0.385,-0.7859 -0.08,-0.3078 -0.119,-0.6617 -0.119,-1.0617 V 64.082 h -1.02 v 6.2051 h 0.96" /><path
       inkscape:connector-curvature="0"
       id="path26522"
       style="fill:#176fc1;fill-opacity:1;fill-rule:nonzero;stroke:none;stroke-width:0.1"
       d="m 354.454,65.1211 c 0.237,0.1391 0.426,0.323 0.571,0.5508 0.144,0.2281 0.25,0.4863 0.318,0.7742 0.068,0.2879 0.102,0.5758 0.102,0.8641 0,0.2718 -0.032,0.5398 -0.096,0.8046 -0.064,0.2641 -0.166,0.5024 -0.307,0.7133 -0.139,0.2129 -0.322,0.3828 -0.545,0.5098 -0.224,0.1293 -0.496,0.193 -0.816,0.193 -0.328,0 -0.608,-0.0629 -0.84,-0.186 -0.232,-0.1238 -0.422,-0.291 -0.57,-0.4988 -0.149,-0.2082 -0.256,-0.4481 -0.324,-0.7191 -0.069,-0.2731 -0.102,-0.5571 -0.102,-0.8528 0,-0.2801 0.027,-0.5594 0.084,-0.8402 0.056,-0.2801 0.152,-0.534 0.287,-0.7621 0.137,-0.2278 0.317,-0.4117 0.541,-0.5508 0.224,-0.141 0.504,-0.2109 0.84,-0.2109 0.336,0 0.621,0.0699 0.857,0.2109 z m 1.303,-2.791 c -0.465,-0.5039 -1.192,-0.7563 -2.183,-0.7563 -0.289,0 -0.582,0.0321 -0.883,0.0961 -0.3,0.0641 -0.572,0.168 -0.817,0.3121 -0.244,0.145 -0.445,0.3321 -0.605,0.5649 -0.16,0.232 -0.248,0.5152 -0.264,0.8511 h 1.02 c 0.008,-0.1832 0.066,-0.3398 0.174,-0.4679 0.108,-0.127 0.24,-0.2313 0.396,-0.311 0.156,-0.08 0.326,-0.139 0.51,-0.175 0.183,-0.0359 0.359,-0.0543 0.527,-0.0543 0.337,0 0.621,0.059 0.853,0.1743 0.231,0.116 0.425,0.2757 0.576,0.4808 0.151,0.2031 0.262,0.4492 0.33,0.7383 0.067,0.2867 0.103,0.6027 0.103,0.9469 v 0.4078 h -0.025 c -0.177,-0.384 -0.442,-0.666 -0.798,-0.8449 -0.356,-0.1809 -0.734,-0.2711 -1.134,-0.2711 -0.464,0 -0.868,0.084 -1.211,0.2523 -0.345,0.168 -0.633,0.3938 -0.866,0.6789 -0.231,0.2828 -0.406,0.6149 -0.521,0.9957 -0.116,0.3793 -0.174,0.7813 -0.174,1.2051 0,0.368 0.048,0.7461 0.145,1.1352 0.095,0.3859 0.255,0.739 0.479,1.0558 0.224,0.3153 0.521,0.575 0.888,0.7801 0.368,0.2031 0.82,0.3051 1.355,0.3051 0.393,0 0.752,-0.0871 1.08,-0.2582 0.328,-0.1719 0.584,-0.4297 0.769,-0.7739 h 0.013 v 0.8891 h 0.959 v -5.6769 c 0,-1.0153 -0.233,-1.7762 -0.696,-2.2801" /><path
       inkscape:connector-curvature="0"
       id="path26524"
       style="fill:#176fc1;fill-opacity:1;fill-rule:nonzero;stroke:none;stroke-width:0.1"
       d="m 362.134,68.4629 c -0.092,0.2152 -0.215,0.4019 -0.371,0.557 -0.156,0.1571 -0.341,0.2801 -0.553,0.3723 -0.212,0.0918 -0.445,0.1387 -0.701,0.1387 -0.264,0 -0.503,-0.0469 -0.715,-0.1387 -0.212,-0.0922 -0.394,-0.2184 -0.546,-0.3781 -0.151,-0.1602 -0.272,-0.3461 -0.36,-0.5571 -0.088,-0.2129 -0.14,-0.439 -0.155,-0.6789 h 3.563 c -0.015,0.2399 -0.07,0.468 -0.162,0.6848 z m 0.246,-3.9848 c -0.463,-0.3511 -1.048,-0.5269 -1.752,-0.5269 -0.496,0 -0.925,0.0797 -1.289,0.2386 -0.365,0.1602 -0.671,0.384 -0.918,0.6723 -0.248,0.2879 -0.434,0.632 -0.558,1.032 -0.124,0.4008 -0.195,0.836 -0.21,1.309 0,0.4707 0.071,0.9028 0.216,1.2949 0.144,0.3918 0.345,0.7321 0.605,1.02 0.26,0.2879 0.568,0.5121 0.925,0.6718 0.355,0.1602 0.745,0.2403 1.17,0.2403 0.552,0 1.01,-0.1141 1.374,-0.3422 0.363,-0.2277 0.656,-0.518 0.876,-0.8699 0.219,-0.352 0.372,-0.736 0.456,-1.152 0.084,-0.416 0.117,-0.8121 0.101,-1.1871 h -4.643 c -0.009,-0.273 0.024,-0.5309 0.096,-0.775 0.072,-0.2437 0.188,-0.4598 0.348,-0.6469 0.159,-0.189 0.363,-0.3379 0.611,-0.4511 0.249,-0.1118 0.541,-0.168 0.876,-0.168 0.433,0 0.787,0.1 1.062,0.3 0.277,0.2 0.459,0.5043 0.547,0.9121 h 1.008 c -0.137,-0.6961 -0.436,-1.2199 -0.901,-1.5719" /><path
       inkscape:connector-curvature="0"
       id="path26526"
       style="fill:#176fc1;fill-opacity:1;fill-rule:nonzero;stroke:none;stroke-width:0.1"
       d="m 365.357,70.2871 v -1.309 h 0.023 c 0.248,0.5039 0.553,0.8758 0.912,1.1168 0.36,0.2391 0.817,0.3512 1.369,0.3352 V 69.35 c -0.409,0 -0.756,-0.0551 -1.044,-0.168 -0.288,-0.1121 -0.521,-0.2761 -0.697,-0.4922 -0.175,-0.216 -0.303,-0.4769 -0.383,-0.7859 -0.081,-0.3078 -0.12,-0.6617 -0.12,-1.0617 V 64.082 h -1.021 v 6.2051 h 0.961" /><path
       inkscape:connector-curvature="0"
       id="path26528"
       style="fill:#176fc1;fill-opacity:1;fill-rule:nonzero;stroke:none;stroke-width:0.1"
       d="m 318.257,54.9859 v 0.9 h 1.044 v 0.9243 c 0,0.5039 0.146,0.8867 0.439,1.1468 0.291,0.2602 0.716,0.3891 1.277,0.3891 0.096,0 0.206,-0.0082 0.33,-0.0242 0.124,-0.016 0.234,-0.0387 0.33,-0.0719 v -0.8871 c -0.088,0.0312 -0.183,0.0531 -0.288,0.0652 -0.104,0.0117 -0.2,0.0188 -0.288,0.0188 -0.248,0 -0.439,-0.0489 -0.576,-0.1438 -0.136,-0.0961 -0.203,-0.2812 -0.203,-0.5531 v -0.8641 h 1.199 v -0.9 h -1.199 V 49.682 h -1.021 v 5.3039 h -1.044" /><path
       inkscape:connector-curvature="0"
       id="path26530"
       style="fill:#176fc1;fill-opacity:1;fill-rule:nonzero;stroke:none;stroke-width:0.1"
       d="m 323.328,51.777 c 0.099,-0.293 0.237,-0.5372 0.414,-0.7321 0.175,-0.1969 0.38,-0.3461 0.617,-0.45 0.236,-0.1051 0.486,-0.157 0.75,-0.157 0.263,0 0.513,0.0519 0.75,0.157 0.236,0.1039 0.441,0.2531 0.618,0.45 0.176,0.1949 0.313,0.4391 0.414,0.7321 0.101,0.291 0.149,0.625 0.149,1.0019 0,0.375 -0.048,0.709 -0.149,1.002 -0.101,0.291 -0.238,0.5371 -0.414,0.7371 -0.177,0.2 -0.382,0.3531 -0.618,0.4558 -0.237,0.1043 -0.487,0.1571 -0.75,0.1571 -0.264,0 -0.514,-0.0528 -0.75,-0.1571 -0.237,-0.1027 -0.442,-0.2558 -0.617,-0.4558 -0.177,-0.2 -0.315,-0.4461 -0.414,-0.7371 -0.101,-0.293 -0.151,-0.627 -0.151,-1.002 0,-0.3769 0.05,-0.7109 0.151,-1.0019 z m -1.04,2.2789 c 0.129,0.3972 0.321,0.741 0.577,1.032 0.256,0.293 0.572,0.523 0.948,0.691 0.376,0.168 0.808,0.252 1.296,0.252 0.496,0 0.929,-0.084 1.303,-0.252 0.371,-0.168 0.685,-0.398 0.941,-0.691 0.256,-0.291 0.447,-0.6348 0.576,-1.032 0.128,-0.3957 0.192,-0.8219 0.192,-1.277 0,-0.457 -0.064,-0.8809 -0.192,-1.2719 -0.129,-0.3922 -0.32,-0.7351 -0.576,-1.0269 -0.256,-0.2922 -0.57,-0.5192 -0.941,-0.6832 -0.374,-0.1641 -0.807,-0.2469 -1.303,-0.2469 -0.488,0 -0.92,0.0828 -1.296,0.2469 -0.376,0.164 -0.692,0.391 -0.948,0.6832 -0.256,0.2918 -0.448,0.6347 -0.577,1.0269 -0.126,0.391 -0.191,0.8149 -0.191,1.2719 0,0.4551 0.065,0.8813 0.191,1.277" /><path
       inkscape:connector-curvature="0"
       id="path26532"
       style="fill:#176fc1;fill-opacity:1;fill-rule:nonzero;stroke:none;stroke-width:0.1"
       d="m 330.246,55.8859 v -1.3078 h 0.023 c 0.248,0.5039 0.553,0.877 0.912,1.1168 0.359,0.2391 0.816,0.352 1.368,0.336 v -1.0797 c -0.408,0 -0.756,-0.0571 -1.044,-0.168 -0.288,-0.1133 -0.52,-0.2762 -0.696,-0.4922 -0.176,-0.2172 -0.304,-0.4789 -0.384,-0.7871 -0.08,-0.307 -0.12,-0.6617 -0.12,-1.0617 V 49.682 h -1.02 v 6.2039 h 0.961" /><path
       inkscape:connector-curvature="0"
       id="path26534"
       style="fill:#176fc1;fill-opacity:1;fill-rule:nonzero;stroke:none;stroke-width:0.1"
       d="m 339.136,49.682 v 6.0969 h -2.207 v 0.816 c 0.287,0 0.567,0.0223 0.84,0.0653 0.271,0.0449 0.518,0.1269 0.738,0.2457 0.219,0.1211 0.405,0.2839 0.558,0.4921 0.151,0.2079 0.256,0.4731 0.311,0.7918 h 0.781 V 49.682 h -1.021" /><path
       inkscape:connector-curvature="0"
       id="path26536"
       style="fill:#176fc1;fill-opacity:1;fill-rule:nonzero;stroke:none;stroke-width:0.1"
       d="m 343.217,56.3789 c 0.112,0.3672 0.286,0.6852 0.523,0.9531 0.235,0.268 0.529,0.4782 0.881,0.6309 0.352,0.1512 0.751,0.2269 1.201,0.2269 0.367,0 0.713,-0.0539 1.037,-0.1609 0.324,-0.109 0.606,-0.2648 0.845,-0.4687 0.241,-0.2043 0.431,-0.4582 0.571,-0.7614 0.14,-0.3047 0.211,-0.6566 0.211,-1.0566 0,-0.375 -0.059,-0.707 -0.175,-0.9961 -0.116,-0.2871 -0.271,-0.5449 -0.462,-0.7742 -0.191,-0.2278 -0.412,-0.4328 -0.66,-0.618 -0.248,-0.184 -0.504,-0.3598 -0.768,-0.5277 -0.263,-0.1602 -0.528,-0.3172 -0.793,-0.4742 -0.263,-0.1551 -0.506,-0.3219 -0.724,-0.4981 -0.221,-0.1758 -0.408,-0.366 -0.565,-0.5687 -0.156,-0.2051 -0.258,-0.4391 -0.306,-0.7032 h 4.369 v -0.9 h -5.557 c 0.04,0.5039 0.13,0.9352 0.27,1.2899 0.14,0.3562 0.318,0.666 0.534,0.9301 0.216,0.264 0.46,0.496 0.732,0.696 0.272,0.2008 0.556,0.3879 0.852,0.5641 0.36,0.2238 0.677,0.4301 0.948,0.6188 0.272,0.1871 0.498,0.3773 0.678,0.5691 0.179,0.193 0.316,0.4 0.408,0.6238 0.092,0.225 0.139,0.4852 0.139,0.7801 0,0.232 -0.045,0.443 -0.133,0.6313 -0.088,0.1867 -0.206,0.3488 -0.354,0.4859 -0.148,0.1348 -0.322,0.2398 -0.522,0.3109 -0.2,0.0719 -0.412,0.109 -0.636,0.109 -0.297,0 -0.551,-0.0629 -0.762,-0.1871 -0.212,-0.1238 -0.386,-0.2859 -0.522,-0.4848 -0.136,-0.2011 -0.233,-0.4269 -0.294,-0.6793 -0.061,-0.2519 -0.086,-0.5058 -0.078,-0.7617 h -1.02 c -0.024,0.4328 0.02,0.8321 0.132,1.2008" /><path
       inkscape:connector-curvature="0"
       id="path26538"
       style="fill:#176fc1;fill-opacity:1;fill-rule:nonzero;stroke:none;stroke-width:0.1"
       d="m 350.843,52.7969 c 0.02,-0.3969 0.084,-0.768 0.192,-1.1168 0.108,-0.3481 0.282,-0.641 0.522,-0.8813 0.239,-0.2406 0.575,-0.3609 1.008,-0.3609 0.432,0 0.768,0.1203 1.009,0.3609 0.239,0.2403 0.413,0.5332 0.521,0.8813 0.108,0.3488 0.172,0.7199 0.192,1.1168 0.019,0.3953 0.03,0.7531 0.03,1.0742 0,0.207 -0.002,0.4371 -0.006,0.6891 -0.005,0.2519 -0.024,0.5039 -0.06,0.7558 -0.037,0.252 -0.088,0.4981 -0.156,0.7379 -0.068,0.241 -0.168,0.45 -0.301,0.6301 -0.131,0.1808 -0.297,0.3262 -0.498,0.439 -0.199,0.111 -0.443,0.168 -0.731,0.168 -0.288,0 -0.532,-0.057 -0.732,-0.168 -0.201,-0.1128 -0.367,-0.2582 -0.498,-0.439 -0.132,-0.1801 -0.232,-0.3891 -0.3,-0.6301 -0.069,-0.2398 -0.12,-0.4859 -0.157,-0.7379 -0.035,-0.2519 -0.055,-0.5039 -0.059,-0.7558 -0.004,-0.252 -0.006,-0.4821 -0.006,-0.6891 0,-0.3211 0.01,-0.6789 0.03,-1.0742 z m -1.086,2.0332 c 0.016,0.3359 0.056,0.664 0.119,0.984 0.065,0.3211 0.157,0.6238 0.277,0.9121 0.12,0.2879 0.284,0.5398 0.492,0.7558 0.208,0.2168 0.47,0.3891 0.786,0.516 0.316,0.129 0.693,0.1918 1.134,0.1918 0.44,0 0.817,-0.0628 1.134,-0.1918 0.316,-0.1269 0.578,-0.2992 0.786,-0.516 0.208,-0.216 0.372,-0.4679 0.492,-0.7558 0.12,-0.2883 0.212,-0.591 0.276,-0.9121 0.064,-0.32 0.104,-0.6481 0.119,-0.984 0.017,-0.336 0.025,-0.6602 0.025,-0.9719 0,-0.3113 -0.008,-0.6363 -0.025,-0.9723 -0.015,-0.3359 -0.055,-0.664 -0.119,-0.9839 -0.064,-0.32 -0.156,-0.6219 -0.276,-0.9059 -0.12,-0.2832 -0.284,-0.5332 -0.492,-0.75 -0.208,-0.2152 -0.468,-0.3859 -0.781,-0.5102 -0.311,-0.123 -0.691,-0.1859 -1.139,-0.1859 -0.441,0 -0.818,0.0629 -1.134,0.1859 -0.316,0.1243 -0.578,0.295 -0.786,0.5102 -0.208,0.2168 -0.372,0.4668 -0.492,0.75 -0.12,0.284 -0.212,0.5859 -0.277,0.9059 -0.063,0.3199 -0.103,0.648 -0.119,0.9839 -0.016,0.336 -0.024,0.661 -0.024,0.9723 0,0.3117 0.008,0.6359 0.024,0.9719" /><path
       inkscape:connector-curvature="0"
       id="path26540"
       style="fill:#176fc1;fill-opacity:1;fill-rule:nonzero;stroke:none;stroke-width:0.1"
       d="m 361.391,53.684 c -0.076,0.2769 -0.192,0.523 -0.349,0.739 -0.156,0.2149 -0.355,0.3872 -0.599,0.5149 -0.244,0.1281 -0.531,0.193 -0.858,0.193 -0.344,0 -0.636,-0.0688 -0.877,-0.2039 -0.24,-0.136 -0.435,-0.3141 -0.587,-0.5348 -0.153,-0.2203 -0.262,-0.4703 -0.331,-0.75 -0.068,-0.2801 -0.101,-0.5641 -0.101,-0.8512 0,-0.3051 0.036,-0.5988 0.107,-0.8828 0.073,-0.2832 0.187,-0.5332 0.342,-0.75 0.156,-0.216 0.358,-0.3902 0.608,-0.5223 0.247,-0.132 0.546,-0.198 0.899,-0.198 0.351,0 0.645,0.068 0.882,0.2043 0.236,0.1359 0.426,0.3168 0.57,0.5398 0.144,0.2239 0.248,0.4801 0.312,0.7692 0.063,0.2867 0.096,0.584 0.096,0.8867 0,0.2891 -0.039,0.5703 -0.114,0.8461 z m -3.666,2.2019 v -0.839 h 0.024 c 0.168,0.3429 0.432,0.5929 0.791,0.75 0.361,0.1562 0.756,0.234 1.189,0.234 0.479,0 0.897,-0.0887 1.254,-0.2649 0.356,-0.1762 0.651,-0.414 0.888,-0.7129 0.236,-0.3011 0.414,-0.6472 0.534,-1.039 0.12,-0.3911 0.18,-0.8071 0.18,-1.2481 0,-0.4398 -0.058,-0.8558 -0.174,-1.248 -0.117,-0.391 -0.292,-0.7328 -0.529,-1.0258 -0.235,-0.291 -0.531,-0.5211 -0.886,-0.6891 -0.358,-0.1679 -0.772,-0.2531 -1.243,-0.2531 -0.152,0 -0.322,0.016 -0.51,0.048 -0.189,0.0329 -0.374,0.084 -0.558,0.1559 -0.184,0.0723 -0.358,0.1699 -0.522,0.2949 -0.164,0.1231 -0.302,0.2774 -0.414,0.4614 h -0.024 V 47.318 h -1.021 v 8.5679 h 1.021" /><path
       inkscape:connector-curvature="0"
       id="path26542"
       style="fill:#176fc1;fill-opacity:1;fill-rule:nonzero;stroke:none;stroke-width:0.1"
       d="m 363.292,55.8859 h 1.309 l 1.487,-2.1711 1.548,2.1711 h 1.225 l -2.137,-2.855 2.4,-3.3489 h -1.308 l -1.728,2.568 -1.727,-2.568 h -1.237 l 2.329,3.2649 -2.161,2.939" /><path
       inkscape:connector-curvature="0"
       id="path26544"
       style="fill:#176fc1;fill-opacity:1;fill-rule:nonzero;stroke:none;stroke-width:0.1"
       d="m 379.193,53.127 v -0.8168 h -2.616 V 49.682 h -0.816 v 2.6282 h -2.616 v 0.8168 h 2.616 v 2.6269 h 0.816 V 53.127 h 2.616" /></g></svg>